<?xml version="1.0" encoding="UTF-8"?>
<svg width="360px" height="36px" viewBox="0 0 360 36" version="1.1" xmlns="http://www.w3.org/2000/svg" xmlns:xlink="http://www.w3.org/1999/xlink">
    <!-- Generator: Sketch 63.1 (92452) - https://sketch.com -->
    <title>button-theming</title>
    <desc>Created with Sketch.</desc>
    <defs>
        <polygon id="path-1" points="109 -1.02673425e-12 115 6 115 30 109 36 6 36 0 30 8.8817842e-16 6 6 -5.42677017e-13"></polygon>
    </defs>
    <g id="Page-1" stroke="none" stroke-width="1" fill="none" fill-rule="evenodd">
        <g id="button-theming" transform="translate(-5.000000, 0.000000)">
            <g id="Buttons-/-Contained-/-Enabled" transform="translate(244.000000, 0.000000)">
                <polygon id="path-1" fill="#FEDBD0" fill-rule="nonzero" points="114.686957 -9.59232693e-14 121 6 121 5.998 121 30 114.686957 36 6.31304348 36 0 30 9.34518164e-16 6 6.31304348 -8.88178448e-16"></polygon>
                <path d="M48.5943547,23.099046 C49.6658967,23.099046 50.5003718,22.8287898 51.0977802,22.2882775 C51.6951886,21.7477652 51.9938927,21.0365648 51.9938927,20.1546762 C51.9938927,19.6331293 51.856394,19.1684783 51.5813965,18.7607234 C51.306399,18.3529685 50.9697641,18.0590057 50.5714919,17.8788349 C50.8939027,17.7271121 51.1760122,17.478192 51.4178204,17.1320744 C51.6596285,16.7859569 51.7805326,16.3663487 51.7805326,15.8732497 C51.7805326,15.0292919 51.5055351,14.3631341 50.9555401,13.8747765 C50.4055451,13.3864189 49.5758113,13.1422401 48.4663386,13.1422401 L48.4663386,13.1422401 L44.3413762,13.1422401 C44.2370668,13.1422401 44.1540934,13.1754294 44.0924561,13.2418081 C44.0308187,13.3081868 44,13.3935309 44,13.4978403 L44,13.4978403 L44,22.7576698 C44,22.8524965 44.0331894,22.9330992 44.0995681,22.9994779 C44.1659468,23.0658566 44.2465495,23.099046 44.3413762,23.099046 L44.3413762,23.099046 L48.5943547,23.099046 Z M48.2103065,17.2245305 L46.0055852,17.2245305 L46.0055852,14.664209 L48.2103065,14.664209 C48.7034054,14.664209 49.077971,14.7732597 49.3340032,14.9913612 C49.5900353,15.2094626 49.7180514,15.5176495 49.7180514,15.9159217 C49.7180514,16.314194 49.5876646,16.6318635 49.3268912,16.8689303 C49.0661177,17.1059971 48.6939228,17.2245305 48.2103065,17.2245305 L48.2103065,17.2245305 Z M48.3525466,21.5770771 L46.0055852,21.5770771 L46.0055852,18.7038274 L48.3525466,18.7038274 C48.8361629,18.7038274 49.2178404,18.8389555 49.4975793,19.1092116 C49.7773181,19.3794678 49.9171875,19.7232146 49.9171875,20.1404522 C49.9171875,20.5576898 49.7796888,20.9014367 49.5046913,21.1716928 C49.2296938,21.441949 48.8456455,21.5770771 48.3525466,21.5770771 L48.3525466,21.5770771 Z M59.0046161,23.2412861 C60.2847769,23.2412861 61.2780868,22.9141339 61.9845459,22.2598295 C62.691005,21.6055251 63.0442345,20.6145858 63.0442345,19.2870117 L63.0442345,19.2870117 L63.0442345,13.4978403 C63.0442345,13.3935309 63.0134158,13.3081868 62.9517785,13.2418081 C62.8901411,13.1754294 62.8071677,13.1422401 62.7028583,13.1422401 L62.7028583,13.1422401 L61.3942495,13.1422401 C61.2899402,13.1422401 61.2045961,13.1754294 61.1382174,13.2418081 C61.0718387,13.3081868 61.0386493,13.3935309 61.0386493,13.4978403 L61.0386493,13.4978403 L61.0386493,19.2870117 C61.0386493,20.0361428 60.8608492,20.6003618 60.505249,20.9796687 C60.1496488,21.3589756 59.6446965,21.5486291 58.9903921,21.5486291 C58.3360877,21.5486291 57.8311354,21.3589756 57.4755352,20.9796687 C57.119935,20.6003618 56.9421349,20.0361428 56.9421349,19.2870117 L56.9421349,19.2870117 L56.9421349,13.4978403 C56.9421349,13.3935309 56.9089456,13.3081868 56.8425669,13.2418081 C56.7761882,13.1754294 56.6908441,13.1422401 56.5865347,13.1422401 L56.5865347,13.1422401 L55.2779259,13.1422401 C55.1736165,13.1422401 55.0906432,13.1754294 55.0290058,13.2418081 C54.9673684,13.3081868 54.9365497,13.3935309 54.9365497,13.4978403 L54.9365497,13.4978403 L54.9365497,19.2870117 C54.9365497,20.6145858 55.2921499,21.6055251 56.0033504,22.2598295 C56.7145508,22.9141339 57.7149727,23.2412861 59.0046161,23.2412861 Z M70.2967661,23.099046 C70.4010755,23.099046 70.4840489,23.0658566 70.5456862,22.9994779 C70.6073236,22.9330992 70.6381423,22.8524965 70.6381423,22.7576698 L70.6381423,22.7576698 L70.6381423,14.9202411 L73.2553598,14.9202411 C73.3596692,14.9202411 73.4450133,14.8870518 73.511392,14.8206731 C73.5777707,14.7542944 73.61096,14.6689503 73.61096,14.5646409 L73.61096,14.5646409 L73.61096,13.4978403 C73.61096,13.3935309 73.5777707,13.3081868 73.511392,13.2418081 C73.4450133,13.1754294 73.3596692,13.1422401 73.2553598,13.1422401 L73.2553598,13.1422401 L65.9868915,13.1422401 C65.8825821,13.1422401 65.7996087,13.1754294 65.7379714,13.2418081 C65.676334,13.3081868 65.6455153,13.3935309 65.6455153,13.4978403 L65.6455153,13.4978403 L65.6455153,14.5646409 C65.6455153,14.6689503 65.6787047,14.7542944 65.7450834,14.8206731 C65.8114621,14.8870518 65.8920648,14.9202411 65.9868915,14.9202411 L65.9868915,14.9202411 L68.6183331,14.9202411 L68.6183331,22.7576698 C68.6183331,22.8524965 68.6515224,22.9330992 68.7179011,22.9994779 C68.7842798,23.0658566 68.8648826,23.099046 68.9597093,23.099046 L68.9597093,23.099046 L70.2967661,23.099046 Z M80.1665152,23.099046 C80.2708246,23.099046 80.353798,23.0658566 80.4154353,22.9994779 C80.4770727,22.9330992 80.5078914,22.8524965 80.5078914,22.7576698 L80.5078914,22.7576698 L80.5078914,14.9202411 L83.1251089,14.9202411 C83.2294183,14.9202411 83.3147624,14.8870518 83.3811411,14.8206731 C83.4475198,14.7542944 83.4807091,14.6689503 83.4807091,14.5646409 L83.4807091,14.5646409 L83.4807091,13.4978403 C83.4807091,13.3935309 83.4475198,13.3081868 83.3811411,13.2418081 C83.3147624,13.1754294 83.2294183,13.1422401 83.1251089,13.1422401 L83.1251089,13.1422401 L75.8566406,13.1422401 C75.7523312,13.1422401 75.6693578,13.1754294 75.6077205,13.2418081 C75.5460831,13.3081868 75.5152644,13.3935309 75.5152644,13.4978403 L75.5152644,13.4978403 L75.5152644,14.5646409 C75.5152644,14.6689503 75.5484538,14.7542944 75.6148325,14.8206731 C75.6812112,14.8870518 75.7618139,14.9202411 75.8566406,14.9202411 L75.8566406,14.9202411 L78.4880822,14.9202411 L78.4880822,22.7576698 C78.4880822,22.8524965 78.5212715,22.9330992 78.5876502,22.9994779 C78.6540289,23.0658566 78.7346317,23.099046 78.8294584,23.099046 L78.8294584,23.099046 L80.1665152,23.099046 Z M89.8229041,23.2412861 C91.1125476,23.2412861 92.1200815,22.9141339 92.8455059,22.2598295 C93.5709304,21.6055251 93.9526079,20.6335512 93.9905386,19.3439078 C94.009504,18.7939128 94.0189866,18.3908992 94.0189866,18.134867 C94.0189866,17.8693522 94.009504,17.4615973 93.9905386,16.9116023 C93.9526079,15.6504069 93.5614477,14.6831743 92.8170579,14.0099046 C92.0726681,13.3366349 91.0746169,13 89.8229041,13 C88.5617087,13 87.5612868,13.3366349 86.8216384,14.0099046 C86.0819899,14.6831743 85.6932004,15.6504069 85.6552697,16.9116023 C85.645787,17.1865998 85.6410457,17.5943547 85.6410457,18.134867 L85.641336,18.3546135 C85.6424971,18.7784308 85.6471417,19.1081956 85.6552697,19.3439078 C85.6932004,20.6335512 86.0725073,21.6055251 86.7931904,22.2598295 C87.5138734,22.9141339 88.523778,23.2412861 89.8229041,23.2412861 Z M89.8229041,21.5913011 C89.1875651,21.5913011 88.6826128,21.399277 88.3080473,21.0152287 C87.9334817,20.6311805 87.7367162,20.0503668 87.7177509,19.2727877 C87.7082682,18.9883075 87.7035269,18.6042593 87.7035269,18.120643 C87.7035269,17.6275441 87.7082682,17.2434958 87.7177509,16.9684983 C87.7367162,16.1909192 87.9358524,15.6101055 88.3151593,15.2260573 C88.6944661,14.8420091 89.1970478,14.649985 89.8229041,14.649985 C90.4392778,14.649985 90.9371181,14.8420091 91.316425,15.2260573 C91.6957319,15.6101055 91.8996094,16.1909192 91.9280574,16.9684983 C91.9470227,17.5184933 91.9565054,17.9025416 91.9565054,18.120643 L91.9560609,18.2039868 C91.9539866,18.4186805 91.9446521,18.7749474 91.9280574,19.2727877 C91.8996094,20.0598495 91.7004733,20.6430339 91.330649,21.0223407 C90.9608248,21.4016476 90.4582432,21.5913011 89.8229041,21.5913011 Z M98.6827486,23.099046 C98.787058,23.099046 98.8700314,23.0658566 98.9316688,22.9994779 C98.9933062,22.9330992 99.0241248,22.8524965 99.0241248,22.7576698 L99.0241248,22.7576698 L99.0241248,16.6840182 L103.077967,22.8572378 C103.172794,23.0184433 103.315034,23.099046 103.504687,23.099046 L103.504687,23.099046 L104.628384,23.099046 C104.723211,23.099046 104.803814,23.0658566 104.870192,22.9994779 C104.936571,22.9330992 104.96976,22.8477552 104.96976,22.7434458 L104.96976,22.7434458 L104.96976,13.4978403 C104.96976,13.3935309 104.936571,13.3081868 104.870192,13.2418081 C104.803814,13.1754294 104.71847,13.1422401 104.61416,13.1422401 L104.61416,13.1422401 L103.390895,13.1422401 C103.286586,13.1422401 103.203613,13.1754294 103.141975,13.2418081 C103.080338,13.3081868 103.049519,13.3935309 103.049519,13.4978403 L103.049519,13.4978403 L103.049519,19.699508 L98.9814528,13.3840482 C98.8866261,13.2228428 98.7491274,13.1422401 98.5689566,13.1422401 L98.5689566,13.1422401 L97.4594839,13.1422401 C97.3551745,13.1422401 97.2722011,13.1754294 97.2105638,13.2418081 C97.1489264,13.3081868 97.1181077,13.3935309 97.1181077,13.4978403 L97.1181077,13.4978403 L97.1181077,22.7576698 C97.1181077,22.8524965 97.1512971,22.9330992 97.2176758,22.9994779 C97.2840545,23.0658566 97.3646572,23.099046 97.4594839,23.099046 L97.4594839,23.099046 L98.6827486,23.099046 Z" id="BUTTON" fill="#442C2E" fill-rule="nonzero"></path>
                <g id="add-24px-Clipped" transform="translate(12.000000, 6.000000)">
                    <g id="add-24px">
                        <g id="Path">
                            <polygon fill="#442C2E" fill-rule="nonzero" points="19 13 13 13 13 19 11 19 11 13 5 13 5 11 11 11 11 5 13 5 13 11 19 11"></polygon>
                            <polygon points="0 0 24 0 24 24 0 24"></polygon>
                        </g>
                    </g>
                </g>
            </g>
            <g id="Buttons-/-Outlined-/-Enabled" transform="translate(113.000000, 0.000000)">
                <g id="add-24px" transform="translate(10.000000, 6.000000)">
                    <polygon id="Path" points="0 0 24 0 24 24 0 24"></polygon>
                    <polygon id="Path" fill="#442C2E" fill-rule="nonzero" points="19 13 13 13 13 19 11 19 11 13 5 13 5 11 11 11 11 5 13 5 13 11 19 11"></polygon>
                </g>
                <polygon id="Path" stroke-opacity="0.12" stroke="#442C2E" points="114.5 6.20710678 114.5 29.7928932 108.792893 35.5 6.20710678 35.5 0.5 29.7928932 0.5 6.20710678 6.20710678 0.5 108.792893 0.5"></polygon>
                <g id="BUTTON-Clipped">
                    <g>
                        <mask id="mask-2" fill="white">
                            <use xlink:href="#path-1"></use>
                        </mask>
                        <g id="path-1"></g>
                        <path d="M42.5943547,23.099046 C43.6658967,23.099046 44.5003718,22.8287898 45.0977802,22.2882775 C45.6951886,21.7477652 45.9938927,21.0365648 45.9938927,20.1546762 C45.9938927,19.6331293 45.856394,19.1684783 45.5813965,18.7607234 C45.306399,18.3529685 44.9697641,18.0590057 44.5714919,17.8788349 C44.8939027,17.7271121 45.1760122,17.478192 45.4178204,17.1320744 C45.6596285,16.7859569 45.7805326,16.3663487 45.7805326,15.8732497 C45.7805326,15.0292919 45.5055351,14.3631341 44.9555401,13.8747765 C44.4055451,13.3864189 43.5758113,13.1422401 42.4663386,13.1422401 L42.4663386,13.1422401 L38.3413762,13.1422401 C38.2370668,13.1422401 38.1540934,13.1754294 38.0924561,13.2418081 C38.0308187,13.3081868 38,13.3935309 38,13.4978403 L38,13.4978403 L38,22.7576698 C38,22.8524965 38.0331894,22.9330992 38.0995681,22.9994779 C38.1659468,23.0658566 38.2465495,23.099046 38.3413762,23.099046 L38.3413762,23.099046 L42.5943547,23.099046 Z M42.2103065,17.2245305 L40.0055852,17.2245305 L40.0055852,14.664209 L42.2103065,14.664209 C42.7034054,14.664209 43.077971,14.7732597 43.3340032,14.9913612 C43.5900353,15.2094626 43.7180514,15.5176495 43.7180514,15.9159217 C43.7180514,16.314194 43.5876646,16.6318635 43.3268912,16.8689303 C43.0661177,17.1059971 42.6939228,17.2245305 42.2103065,17.2245305 L42.2103065,17.2245305 Z M42.3525466,21.5770771 L40.0055852,21.5770771 L40.0055852,18.7038274 L42.3525466,18.7038274 C42.8361629,18.7038274 43.2178404,18.8389555 43.4975793,19.1092116 C43.7773181,19.3794678 43.9171875,19.7232146 43.9171875,20.1404522 C43.9171875,20.5576898 43.7796888,20.9014367 43.5046913,21.1716928 C43.2296938,21.441949 42.8456455,21.5770771 42.3525466,21.5770771 L42.3525466,21.5770771 Z M53.0046161,23.2412861 C54.2847769,23.2412861 55.2780868,22.9141339 55.9845459,22.2598295 C56.691005,21.6055251 57.0442345,20.6145858 57.0442345,19.2870117 L57.0442345,19.2870117 L57.0442345,13.4978403 C57.0442345,13.3935309 57.0134158,13.3081868 56.9517785,13.2418081 C56.8901411,13.1754294 56.8071677,13.1422401 56.7028583,13.1422401 L56.7028583,13.1422401 L55.3942495,13.1422401 C55.2899402,13.1422401 55.2045961,13.1754294 55.1382174,13.2418081 C55.0718387,13.3081868 55.0386493,13.3935309 55.0386493,13.4978403 L55.0386493,13.4978403 L55.0386493,19.2870117 C55.0386493,20.0361428 54.8608492,20.6003618 54.505249,20.9796687 C54.1496488,21.3589756 53.6446965,21.5486291 52.9903921,21.5486291 C52.3360877,21.5486291 51.8311354,21.3589756 51.4755352,20.9796687 C51.119935,20.6003618 50.9421349,20.0361428 50.9421349,19.2870117 L50.9421349,19.2870117 L50.9421349,13.4978403 C50.9421349,13.3935309 50.9089456,13.3081868 50.8425669,13.2418081 C50.7761882,13.1754294 50.6908441,13.1422401 50.5865347,13.1422401 L50.5865347,13.1422401 L49.2779259,13.1422401 C49.1736165,13.1422401 49.0906432,13.1754294 49.0290058,13.2418081 C48.9673684,13.3081868 48.9365497,13.3935309 48.9365497,13.4978403 L48.9365497,13.4978403 L48.9365497,19.2870117 C48.9365497,20.6145858 49.2921499,21.6055251 50.0033504,22.2598295 C50.7145508,22.9141339 51.7149727,23.2412861 53.0046161,23.2412861 Z M64.2967661,23.099046 C64.4010755,23.099046 64.4840489,23.0658566 64.5456862,22.9994779 C64.6073236,22.9330992 64.6381423,22.8524965 64.6381423,22.7576698 L64.6381423,22.7576698 L64.6381423,14.9202411 L67.2553598,14.9202411 C67.3596692,14.9202411 67.4450133,14.8870518 67.511392,14.8206731 C67.5777707,14.7542944 67.61096,14.6689503 67.61096,14.5646409 L67.61096,14.5646409 L67.61096,13.4978403 C67.61096,13.3935309 67.5777707,13.3081868 67.511392,13.2418081 C67.4450133,13.1754294 67.3596692,13.1422401 67.2553598,13.1422401 L67.2553598,13.1422401 L59.9868915,13.1422401 C59.8825821,13.1422401 59.7996087,13.1754294 59.7379714,13.2418081 C59.676334,13.3081868 59.6455153,13.3935309 59.6455153,13.4978403 L59.6455153,13.4978403 L59.6455153,14.5646409 C59.6455153,14.6689503 59.6787047,14.7542944 59.7450834,14.8206731 C59.8114621,14.8870518 59.8920648,14.9202411 59.9868915,14.9202411 L59.9868915,14.9202411 L62.6183331,14.9202411 L62.6183331,22.7576698 C62.6183331,22.8524965 62.6515224,22.9330992 62.7179011,22.9994779 C62.7842798,23.0658566 62.8648826,23.099046 62.9597093,23.099046 L62.9597093,23.099046 L64.2967661,23.099046 Z M74.1665152,23.099046 C74.2708246,23.099046 74.353798,23.0658566 74.4154353,22.9994779 C74.4770727,22.9330992 74.5078914,22.8524965 74.5078914,22.7576698 L74.5078914,22.7576698 L74.5078914,14.9202411 L77.1251089,14.9202411 C77.2294183,14.9202411 77.3147624,14.8870518 77.3811411,14.8206731 C77.4475198,14.7542944 77.4807091,14.6689503 77.4807091,14.5646409 L77.4807091,14.5646409 L77.4807091,13.4978403 C77.4807091,13.3935309 77.4475198,13.3081868 77.3811411,13.2418081 C77.3147624,13.1754294 77.2294183,13.1422401 77.1251089,13.1422401 L77.1251089,13.1422401 L69.8566406,13.1422401 C69.7523312,13.1422401 69.6693578,13.1754294 69.6077205,13.2418081 C69.5460831,13.3081868 69.5152644,13.3935309 69.5152644,13.4978403 L69.5152644,13.4978403 L69.5152644,14.5646409 C69.5152644,14.6689503 69.5484538,14.7542944 69.6148325,14.8206731 C69.6812112,14.8870518 69.7618139,14.9202411 69.8566406,14.9202411 L69.8566406,14.9202411 L72.4880822,14.9202411 L72.4880822,22.7576698 C72.4880822,22.8524965 72.5212715,22.9330992 72.5876502,22.9994779 C72.6540289,23.0658566 72.7346317,23.099046 72.8294584,23.099046 L72.8294584,23.099046 L74.1665152,23.099046 Z M83.8229041,23.2412861 C85.1125476,23.2412861 86.1200815,22.9141339 86.8455059,22.2598295 C87.5709304,21.6055251 87.9526079,20.6335512 87.9905386,19.3439078 C88.009504,18.7939128 88.0189866,18.3908992 88.0189866,18.134867 C88.0189866,17.8693522 88.009504,17.4615973 87.9905386,16.9116023 C87.9526079,15.6504069 87.5614477,14.6831743 86.8170579,14.0099046 C86.0726681,13.3366349 85.0746169,13 83.8229041,13 C82.5617087,13 81.5612868,13.3366349 80.8216384,14.0099046 C80.0819899,14.6831743 79.6932004,15.6504069 79.6552697,16.9116023 C79.645787,17.1865998 79.6410457,17.5943547 79.6410457,18.134867 L79.641336,18.3546135 C79.6424971,18.7784308 79.6471417,19.1081956 79.6552697,19.3439078 C79.6932004,20.6335512 80.0725073,21.6055251 80.7931904,22.2598295 C81.5138734,22.9141339 82.523778,23.2412861 83.8229041,23.2412861 Z M83.8229041,21.5913011 C83.1875651,21.5913011 82.6826128,21.399277 82.3080473,21.0152287 C81.9334817,20.6311805 81.7367162,20.0503668 81.7177509,19.2727877 C81.7082682,18.9883075 81.7035269,18.6042593 81.7035269,18.120643 C81.7035269,17.6275441 81.7082682,17.2434958 81.7177509,16.9684983 C81.7367162,16.1909192 81.9358524,15.6101055 82.3151593,15.2260573 C82.6944661,14.8420091 83.1970478,14.649985 83.8229041,14.649985 C84.4392778,14.649985 84.9371181,14.8420091 85.316425,15.2260573 C85.6957319,15.6101055 85.8996094,16.1909192 85.9280574,16.9684983 C85.9470227,17.5184933 85.9565054,17.9025416 85.9565054,18.120643 L85.9560609,18.2039868 C85.9539866,18.4186805 85.9446521,18.7749474 85.9280574,19.2727877 C85.8996094,20.0598495 85.7004733,20.6430339 85.330649,21.0223407 C84.9608248,21.4016476 84.4582432,21.5913011 83.8229041,21.5913011 Z M92.6827486,23.099046 C92.787058,23.099046 92.8700314,23.0658566 92.9316688,22.9994779 C92.9933062,22.9330992 93.0241248,22.8524965 93.0241248,22.7576698 L93.0241248,22.7576698 L93.0241248,16.6840182 L97.0779672,22.8572378 C97.172794,23.0184433 97.3150341,23.099046 97.5046875,23.099046 L97.5046875,23.099046 L98.6283842,23.099046 C98.7232109,23.099046 98.8038136,23.0658566 98.8701923,22.9994779 C98.936571,22.9330992 98.9697604,22.8477552 98.9697604,22.7434458 L98.9697604,22.7434458 L98.9697604,13.4978403 C98.9697604,13.3935309 98.936571,13.3081868 98.8701923,13.2418081 C98.8038136,13.1754294 98.7184696,13.1422401 98.6141602,13.1422401 L98.6141602,13.1422401 L97.3908954,13.1422401 C97.286586,13.1422401 97.2036127,13.1754294 97.1419753,13.2418081 C97.0803379,13.3081868 97.0495192,13.3935309 97.0495192,13.4978403 L97.0495192,13.4978403 L97.0495192,19.699508 L92.9814528,13.3840482 C92.8866261,13.2228428 92.7491274,13.1422401 92.5689566,13.1422401 L92.5689566,13.1422401 L91.4594839,13.1422401 C91.3551745,13.1422401 91.2722011,13.1754294 91.2105638,13.2418081 C91.1489264,13.3081868 91.1181077,13.3935309 91.1181077,13.4978403 L91.1181077,13.4978403 L91.1181077,22.7576698 C91.1181077,22.8524965 91.1512971,22.9330992 91.2176758,22.9994779 C91.2840545,23.0658566 91.3646572,23.099046 91.4594839,23.099046 L91.4594839,23.099046 L92.6827486,23.099046 Z" id="BUTTON" fill="#442C2E" fill-rule="nonzero" mask="url(#mask-2)"></path>
                    </g>
                </g>
            </g>
            <g id="Buttons-/-Outlined-/-Enabled" transform="translate(0.000000, 7.000000)">
                <path d="M32.5943547,17.099046 C33.6658967,17.099046 34.5003718,16.8287898 35.0977802,16.2882775 C35.6951886,15.7477652 35.9938927,15.0365648 35.9938927,14.1546762 C35.9938927,13.6331293 35.856394,13.1684783 35.5813965,12.7607234 C35.306399,12.3529685 34.9697641,12.0590057 34.5714919,11.8788349 C34.8939027,11.7271121 35.1760122,11.478192 35.4178204,11.1320744 C35.6596285,10.7859569 35.7805326,10.3663487 35.7805326,9.8732497 C35.7805326,9.02929187 35.5055351,8.36313414 34.9555401,7.87477652 C34.4055451,7.3864189 33.5758113,7.14224008 32.4663386,7.14224008 L32.4663386,7.14224008 L28.3413762,7.14224008 C28.2370668,7.14224008 28.1540934,7.17542944 28.0924561,7.24180814 C28.0308187,7.30818685 28,7.3935309 28,7.49784029 L28,7.49784029 L28,16.7576698 C28,16.8524965 28.0331894,16.9330992 28.0995681,16.9994779 C28.1659468,17.0658566 28.2465495,17.099046 28.3413762,17.099046 L28.3413762,17.099046 L32.5943547,17.099046 Z M32.2103065,11.2245305 L30.0055852,11.2245305 L30.0055852,8.66420898 L32.2103065,8.66420898 C32.7034054,8.66420898 33.077971,8.77325972 33.3340032,8.99136118 C33.5900353,9.20946264 33.7180514,9.51764949 33.7180514,9.91592172 C33.7180514,10.314194 33.5876646,10.6318635 33.3268912,10.8689303 C33.0661177,11.1059971 32.6939228,11.2245305 32.2103065,11.2245305 L32.2103065,11.2245305 Z M32.3525466,15.5770771 L30.0055852,15.5770771 L30.0055852,12.7038274 L32.3525466,12.7038274 C32.8361629,12.7038274 33.2178404,12.8389555 33.4975793,13.1092116 C33.7773181,13.3794678 33.9171875,13.7232146 33.9171875,14.1404522 C33.9171875,14.5576898 33.7796888,14.9014367 33.5046913,15.1716928 C33.2296938,15.441949 32.8456455,15.5770771 32.3525466,15.5770771 L32.3525466,15.5770771 Z M43.0046161,17.2412861 C44.2847769,17.2412861 45.2780868,16.9141339 45.9845459,16.2598295 C46.691005,15.6055251 47.0442345,14.6145858 47.0442345,13.2870117 L47.0442345,13.2870117 L47.0442345,7.49784029 C47.0442345,7.3935309 47.0134158,7.30818685 46.9517785,7.24180814 C46.8901411,7.17542944 46.8071677,7.14224008 46.7028583,7.14224008 L46.7028583,7.14224008 L45.3942495,7.14224008 C45.2899402,7.14224008 45.2045961,7.17542944 45.1382174,7.24180814 C45.0718387,7.30818685 45.0386493,7.3935309 45.0386493,7.49784029 L45.0386493,7.49784029 L45.0386493,13.2870117 C45.0386493,14.0361428 44.8608492,14.6003618 44.505249,14.9796687 C44.1496488,15.3589756 43.6446965,15.5486291 42.9903921,15.5486291 C42.3360877,15.5486291 41.8311354,15.3589756 41.4755352,14.9796687 C41.119935,14.6003618 40.9421349,14.0361428 40.9421349,13.2870117 L40.9421349,13.2870117 L40.9421349,7.49784029 C40.9421349,7.3935309 40.9089456,7.30818685 40.8425669,7.24180814 C40.7761882,7.17542944 40.6908441,7.14224008 40.5865347,7.14224008 L40.5865347,7.14224008 L39.2779259,7.14224008 C39.1736165,7.14224008 39.0906432,7.17542944 39.0290058,7.24180814 C38.9673684,7.30818685 38.9365497,7.3935309 38.9365497,7.49784029 L38.9365497,7.49784029 L38.9365497,13.2870117 C38.9365497,14.6145858 39.2921499,15.6055251 40.0033504,16.2598295 C40.7145508,16.9141339 41.7149727,17.2412861 43.0046161,17.2412861 Z M54.2967661,17.099046 C54.4010755,17.099046 54.4840489,17.0658566 54.5456862,16.9994779 C54.6073236,16.9330992 54.6381423,16.8524965 54.6381423,16.7576698 L54.6381423,16.7576698 L54.6381423,8.92024114 L57.2553598,8.92024114 C57.3596692,8.92024114 57.4450133,8.88705178 57.511392,8.82067308 C57.5777707,8.75429437 57.61096,8.66895032 57.61096,8.56464093 L57.61096,8.56464093 L57.61096,7.49784029 C57.61096,7.3935309 57.5777707,7.30818685 57.511392,7.24180814 C57.4450133,7.17542944 57.3596692,7.14224008 57.2553598,7.14224008 L57.2553598,7.14224008 L49.9868915,7.14224008 C49.8825821,7.14224008 49.7996087,7.17542944 49.7379714,7.24180814 C49.676334,7.30818685 49.6455153,7.3935309 49.6455153,7.49784029 L49.6455153,7.49784029 L49.6455153,8.56464093 C49.6455153,8.66895032 49.6787047,8.75429437 49.7450834,8.82067308 C49.8114621,8.88705178 49.8920648,8.92024114 49.9868915,8.92024114 L49.9868915,8.92024114 L52.6183331,8.92024114 L52.6183331,16.7576698 C52.6183331,16.8524965 52.6515224,16.9330992 52.7179011,16.9994779 C52.7842798,17.0658566 52.8648826,17.099046 52.9597093,17.099046 L52.9597093,17.099046 L54.2967661,17.099046 Z M64.1665152,17.099046 C64.2708246,17.099046 64.353798,17.0658566 64.4154353,16.9994779 C64.4770727,16.9330992 64.5078914,16.8524965 64.5078914,16.7576698 L64.5078914,16.7576698 L64.5078914,8.92024114 L67.1251089,8.92024114 C67.2294183,8.92024114 67.3147624,8.88705178 67.3811411,8.82067308 C67.4475198,8.75429437 67.4807091,8.66895032 67.4807091,8.56464093 L67.4807091,8.56464093 L67.4807091,7.49784029 C67.4807091,7.3935309 67.4475198,7.30818685 67.3811411,7.24180814 C67.3147624,7.17542944 67.2294183,7.14224008 67.1251089,7.14224008 L67.1251089,7.14224008 L59.8566406,7.14224008 C59.7523312,7.14224008 59.6693578,7.17542944 59.6077205,7.24180814 C59.5460831,7.30818685 59.5152644,7.3935309 59.5152644,7.49784029 L59.5152644,7.49784029 L59.5152644,8.56464093 C59.5152644,8.66895032 59.5484538,8.75429437 59.6148325,8.82067308 C59.6812112,8.88705178 59.7618139,8.92024114 59.8566406,8.92024114 L59.8566406,8.92024114 L62.4880822,8.92024114 L62.4880822,16.7576698 C62.4880822,16.8524965 62.5212715,16.9330992 62.5876502,16.9994779 C62.6540289,17.0658566 62.7346317,17.099046 62.8294584,17.099046 L62.8294584,17.099046 L64.1665152,17.099046 Z M73.8229041,17.2412861 C75.1125476,17.2412861 76.1200815,16.9141339 76.8455059,16.2598295 C77.5709304,15.6055251 77.9526079,14.6335512 77.9905386,13.3439078 C78.009504,12.7939128 78.0189866,12.3908992 78.0189866,12.134867 C78.0189866,11.8693522 78.009504,11.4615973 77.9905386,10.9116023 C77.9526079,9.6504069 77.5614477,8.68317433 76.8170579,8.0099046 C76.0726681,7.33663487 75.0746169,7 73.8229041,7 C72.5617087,7 71.5612868,7.33663487 70.8216384,8.0099046 C70.0819899,8.68317433 69.6932004,9.6504069 69.6552697,10.9116023 C69.645787,11.1865998 69.6410457,11.5943547 69.6410457,12.134867 L69.641336,12.3546135 C69.6424971,12.7784308 69.6471417,13.1081956 69.6552697,13.3439078 C69.6932004,14.6335512 70.0725073,15.6055251 70.7931904,16.2598295 C71.5138734,16.9141339 72.523778,17.2412861 73.8229041,17.2412861 Z M73.8229041,15.5913011 C73.1875651,15.5913011 72.6826128,15.399277 72.3080473,15.0152287 C71.9334817,14.6311805 71.7367162,14.0503668 71.7177509,13.2727877 C71.7082682,12.9883075 71.7035269,12.6042593 71.7035269,12.120643 C71.7035269,11.6275441 71.7082682,11.2434958 71.7177509,10.9684983 C71.7367162,10.1909192 71.9358524,9.61010554 72.3151593,9.22605732 C72.6944661,8.84200909 73.1970478,8.64998498 73.8229041,8.64998498 C74.4392778,8.64998498 74.9371181,8.84200909 75.316425,9.22605732 C75.6957319,9.61010554 75.8996094,10.1909192 75.9280574,10.9684983 C75.9470227,11.5184933 75.9565054,11.9025416 75.9565054,12.120643 L75.9560609,12.2039868 C75.9539866,12.4186805 75.9446521,12.7749474 75.9280574,13.2727877 C75.8996094,14.0598495 75.7004733,14.6430339 75.330649,15.0223407 C74.9608248,15.4016476 74.4582432,15.5913011 73.8229041,15.5913011 Z M82.6827486,17.099046 C82.787058,17.099046 82.8700314,17.0658566 82.9316688,16.9994779 C82.9933062,16.9330992 83.0241248,16.8524965 83.0241248,16.7576698 L83.0241248,16.7576698 L83.0241248,10.6840182 L87.0779672,16.8572378 C87.172794,17.0184433 87.3150341,17.099046 87.5046875,17.099046 L87.5046875,17.099046 L88.6283842,17.099046 C88.7232109,17.099046 88.8038136,17.0658566 88.8701923,16.9994779 C88.936571,16.9330992 88.9697604,16.8477552 88.9697604,16.7434458 L88.9697604,16.7434458 L88.9697604,7.49784029 C88.9697604,7.3935309 88.936571,7.30818685 88.8701923,7.24180814 C88.8038136,7.17542944 88.7184696,7.14224008 88.6141602,7.14224008 L88.6141602,7.14224008 L87.3908954,7.14224008 C87.286586,7.14224008 87.2036127,7.17542944 87.1419753,7.24180814 C87.0803379,7.30818685 87.0495192,7.3935309 87.0495192,7.49784029 L87.0495192,7.49784029 L87.0495192,13.699508 L82.9814528,7.38404823 C82.8866261,7.2228428 82.7491274,7.14224008 82.5689566,7.14224008 L82.5689566,7.14224008 L81.4594839,7.14224008 C81.3551745,7.14224008 81.2722011,7.17542944 81.2105638,7.24180814 C81.1489264,7.30818685 81.1181077,7.3935309 81.1181077,7.49784029 L81.1181077,7.49784029 L81.1181077,16.7576698 C81.1181077,16.8524965 81.1512971,16.9330992 81.2176758,16.9994779 C81.2840545,17.0658566 81.3646572,17.099046 81.4594839,17.099046 L81.4594839,17.099046 L82.6827486,17.099046 Z" id="BUTTON" fill="#442C2E" fill-rule="nonzero"></path>
                <g id="add-24px">
                    <polygon id="Path" fill="#442C2E" fill-rule="nonzero" points="19 13 13 13 13 19 11 19 11 13 5 13 5 11 11 11 11 5 13 5 13 11 19 11"></polygon>
                    <polygon id="Path" points="0 0 24 0 24 24 0 24"></polygon>
                </g>
            </g>
        </g>
    </g>
</svg>