<?xml version="1.0" encoding="UTF-8"?>
<svg width="185px" height="36px" viewBox="0 0 185 36" version="1.1" xmlns="http://www.w3.org/2000/svg" xmlns:xlink="http://www.w3.org/1999/xlink">
    <!-- Generator: Sketch 61 (89581) - https://sketch.com -->
    <title>Contained Button</title>
    <desc>Created with Sketch.</desc>
    <g id="Contained-Button" stroke="none" stroke-width="1" fill="none" fill-rule="evenodd">
        <g id="contained-button" fill-rule="nonzero">
            <rect id="Container" fill="#6200EE" x="0" y="0" width="185" height="36" rx="4"></rect>
            <path d="M24.6591,19.7396 C24.5589,20.8014 24.167,21.6308 23.4834,22.2278 C22.7998,22.8203 21.8906,23.1165 20.7558,23.1165 C19.9629,23.1165 19.2633,22.9297 18.6572,22.556 C18.0556,22.1777 17.5908,21.6422 17.2627,20.9495 C16.9345,20.2568 16.7636,19.4525 16.75,18.5364 L16.75,17.6068 C16.75,16.668 16.9163,15.8408 17.249,15.1253 C17.5817,14.4098 18.0579,13.8584 18.6777,13.471 C19.302,13.0836 20.0221,12.89 20.8379,12.89 C21.9362,12.89 22.8203,13.1885 23.4902,13.7855 C24.1601,14.3825 24.5498,15.2256 24.6591,16.3148 L22.9365,16.3148 C22.8545,15.5993 22.6448,15.0843 22.3076,14.7698 C21.9749,14.4508 21.485,14.2913 20.8379,14.2913 C20.0859,14.2913 19.5071,14.567 19.1015,15.1185 C18.7005,15.6653 18.4954,16.4697 18.4863,17.5316 L18.4863,18.4134 C18.4863,19.4889 18.6777,20.3092 19.0605,20.8743 C19.4479,21.4394 20.013,21.722 20.7558,21.722 C21.4349,21.722 21.9453,21.5693 22.2871,21.264 C22.6289,20.9586 22.8453,20.4505 22.9365,19.7396 L24.6591,19.7396 Z M35.4043,18.263 C35.4043,19.2383 35.2356,20.095 34.8984,20.8333 C34.5612,21.567 34.0781,22.1321 33.4492,22.5286 C32.8248,22.9206 32.1048,23.1165 31.289,23.1165 C30.4824,23.1165 29.7623,22.9206 29.1289,22.5286 C28.5,22.1321 28.0123,21.5693 27.666,20.8402 C27.3242,20.111 27.151,19.2702 27.1465,18.3177 L27.1465,17.7571 C27.1465,16.7864 27.3173,15.9297 27.6591,15.1868 C28.0055,14.444 28.4909,13.8766 29.1152,13.4847 C29.7441,13.0882 30.4642,12.89 31.2754,12.89 C32.0866,12.89 32.8043,13.0859 33.4287,13.4778 C34.0576,13.8652 34.5429,14.4258 34.8847,15.1595 C35.2265,15.8887 35.3997,16.7386 35.4043,17.7093 L35.4043,18.263 Z M33.6748,17.7435 C33.6748,16.6406 33.4651,15.7952 33.0459,15.2073 C32.6312,14.6194 32.041,14.3255 31.2754,14.3255 C30.528,14.3255 29.9423,14.6194 29.5185,15.2073 C29.0992,15.7907 28.8851,16.6178 28.8759,17.6888 L28.8759,18.263 C28.8759,19.3568 29.0879,20.2021 29.5117,20.7991 C29.9401,21.3961 30.5325,21.6946 31.289,21.6946 C32.0547,21.6946 32.6425,21.403 33.0527,20.8196 C33.4674,20.2363 33.6748,19.3841 33.6748,18.263 L33.6748,17.7435 Z M46.2724,22.9798 L44.5429,22.9798 L40.1064,15.9183 L40.1064,22.9798 L38.3769,22.9798 L38.3769,13.0267 L40.1064,13.0267 L44.5566,20.1155 L44.5566,13.0267 L46.2724,13.0267 L46.2724,22.9798 Z M56.5527,14.4212 L53.4492,14.4212 L53.4492,22.9798 L51.7334,22.9798 L51.7334,14.4212 L48.6572,14.4212 L48.6572,13.0267 L56.5527,13.0267 L56.5527,14.4212 Z M63.8662,20.6624 L60.0107,20.6624 L59.2041,22.9798 L57.4062,22.9798 L61.166,13.0267 L62.7177,13.0267 L66.4843,22.9798 L64.6797,22.9798 L63.8662,20.6624 Z M60.4961,19.2679 L63.3808,19.2679 L61.9384,15.139 L60.4961,19.2679 Z M70.6943,22.9798 L68.9716,22.9798 L68.9716,13.0267 L70.6943,13.0267 L70.6943,22.9798 Z M81.9658,22.9798 L80.2363,22.9798 L75.7998,15.9183 L75.7998,22.9798 L74.0703,22.9798 L74.0703,13.0267 L75.7998,13.0267 L80.25,20.1155 L80.25,13.0267 L81.9658,13.0267 L81.9658,22.9798 Z M91.0771,18.5364 L86.9892,18.5364 L86.9892,21.5989 L91.7675,21.5989 L91.7675,22.9798 L85.2597,22.9798 L85.2597,13.0267 L91.7197,13.0267 L91.7197,14.4212 L86.9892,14.4212 L86.9892,17.1693 L91.0771,17.1693 L91.0771,18.5364 Z M94.4257,22.9798 L94.4257,13.0267 L97.3652,13.0267 C98.2448,13.0267 99.0241,13.2226 99.7031,13.6146 C100.3867,14.0065 100.9153,14.5625 101.2887,15.2825 C101.6627,16.0026 101.8497,16.8275 101.8497,17.7571 L101.8497,18.2562 C101.8497,19.1995 101.6607,20.029 101.2817,20.7444 C100.9085,21.4599 100.373,22.0114 99.6757,22.3987 C98.983,22.7861 98.1878,22.9798 97.29,22.9798 L94.4257,22.9798 Z M96.1552,14.4212 L96.1552,21.5989 L97.2832,21.5989 C98.1901,21.5989 98.8851,21.3164 99.3681,20.7513 C99.8558,20.1816 100.1041,19.3659 100.1132,18.304 L100.1132,17.7503 C100.1132,16.6702 99.8785,15.8454 99.4091,15.2757 C98.9397,14.706 98.2584,14.4212 97.3652,14.4212 L96.1552,14.4212 Z M109.5587,22.9798 L109.5587,13.0267 L112.9697,13.0267 C114.0957,13.0267 114.9517,13.2523 115.5397,13.7034 C116.1277,14.1546 116.4217,14.8268 116.4217,15.72 C116.4217,16.1758 116.2987,16.5859 116.0527,16.9505 C115.8067,17.3151 115.4467,17.5976 114.9727,17.7982 C115.5107,17.944 115.9247,18.2197 116.2167,18.6253 C116.5127,19.0263 116.6607,19.5094 116.6607,20.0745 C116.6607,21.0088 116.3607,21.7265 115.7587,22.2278 C115.1617,22.7291 114.3047,22.9798 113.1887,22.9798 L109.5587,22.9798 Z M111.2877,18.4886 L111.2877,21.5989 L113.2087,21.5989 C113.7517,21.5989 114.1747,21.4645 114.4807,21.1956 C114.7857,20.9267 114.9387,20.553 114.9387,20.0745 C114.9387,19.04 114.4097,18.5114 113.3527,18.4886 L111.2877,18.4886 Z M111.2877,17.2171 L112.9837,17.2171 C113.5207,17.2171 113.9407,17.0963 114.2407,16.8548 C114.5467,16.6087 114.6987,16.2624 114.6987,15.8157 C114.6987,15.3236 114.5577,14.9681 114.2757,14.7493 C113.9977,14.5306 113.5617,14.4212 112.9697,14.4212 L111.2877,14.4212 L111.2877,17.2171 Z M126.9207,13.0267 L126.9207,19.678 C126.9207,20.7353 126.5817,21.5739 125.9027,22.1937 C125.2277,22.8089 124.3277,23.1165 123.2017,23.1165 C122.0627,23.1165 121.1577,22.8135 120.4887,22.2073 C119.8187,21.5967 119.4837,20.7513 119.4837,19.6712 L119.4837,13.0267 L121.2057,13.0267 L121.2057,19.6849 C121.2057,20.3502 121.3747,20.8584 121.7117,21.2093 C122.0487,21.5602 122.5457,21.7357 123.2017,21.7357 C124.5327,21.7357 125.1987,21.0338 125.1987,19.6302 L125.1987,13.0267 L126.9207,13.0267 Z M137.2147,14.4212 L134.1117,14.4212 L134.1117,22.9798 L132.3957,22.9798 L132.3957,14.4212 L129.3197,14.4212 L129.3197,13.0267 L137.2147,13.0267 L137.2147,14.4212 Z M147.0777,14.4212 L143.9747,14.4212 L143.9747,22.9798 L142.2587,22.9798 L142.2587,14.4212 L139.1827,14.4212 L139.1827,13.0267 L147.0777,13.0267 L147.0777,14.4212 Z M157.3927,18.263 C157.3927,19.2383 157.2237,20.095 156.8867,20.8333 C156.5497,21.567 156.0667,22.1321 155.4377,22.5286 C154.8127,22.9206 154.0927,23.1165 153.2777,23.1165 C152.4707,23.1165 151.7507,22.9206 151.1167,22.5286 C150.4887,22.1321 150.0007,21.5693 149.6547,20.8402 C149.3127,20.111 149.1397,19.2702 149.1347,18.3177 L149.1347,17.7571 C149.1347,16.7864 149.3057,15.9297 149.6477,15.1868 C149.9937,14.444 150.4787,13.8766 151.1037,13.4847 C151.7327,13.0882 152.4527,12.89 153.2637,12.89 C154.0747,12.89 154.7927,13.0859 155.4167,13.4778 C156.0457,13.8652 156.5317,14.4258 156.8727,15.1595 C157.2147,15.8887 157.3877,16.7386 157.3927,17.7093 L157.3927,18.263 Z M155.6627,17.7435 C155.6627,16.6406 155.4537,15.7952 155.0337,15.2073 C154.6197,14.6194 154.0297,14.3255 153.2637,14.3255 C152.5167,14.3255 151.9307,14.6194 151.5067,15.2073 C151.0877,15.7907 150.8737,16.6178 150.8647,17.6888 L150.8647,18.263 C150.8647,19.3568 151.0757,20.2021 151.4997,20.7991 C151.9287,21.3961 152.5207,21.6946 153.2777,21.6946 C154.0427,21.6946 154.6307,21.403 155.0407,20.8196 C155.4557,20.2363 155.6627,19.3841 155.6627,18.263 L155.6627,17.7435 Z M168.2607,22.9798 L166.5317,22.9798 L162.0947,15.9183 L162.0947,22.9798 L160.3647,22.9798 L160.3647,13.0267 L162.0947,13.0267 L166.5447,20.1155 L166.5447,13.0267 L168.2607,13.0267 L168.2607,22.9798 Z" id="Text-Label" fill="#FFFFFF"></path>
        </g>
    </g>
</svg>
