<?xml version="1.0" encoding="UTF-8"?>
<svg width="212px" height="36px" viewBox="0 0 212 36" version="1.1" xmlns="http://www.w3.org/2000/svg" xmlns:xlink="http://www.w3.org/1999/xlink">
    <!-- Generator: Sketch 61.1 (89650) - https://sketch.com -->
    <title>Contained Button (Icon)</title>
    <desc>Created with Sketch.</desc>
    <g id="Contained-Button-(Icon)" stroke="none" stroke-width="1" fill="none" fill-rule="evenodd">
        <rect id="Container" fill="#6200EE" fill-rule="nonzero" x="0" y="0" width="212" height="36" rx="4"></rect>
        <path d="M51.9346422,19.6978927 C51.8341186,20.7361756 51.440953,21.5472058 50.7551453,22.1309832 C50.0693377,22.7103603 49.1572014,23 48.0187366,23 C47.223276,23 46.5214166,22.8173373 45.9133593,22.4519141 C45.3098164,22.0819929 44.8435153,21.5583533 44.5143558,20.8809955 C44.1850958,20.2036376 44.0136439,19.4171515 44,18.5213416 L44,17.6123307 C44,16.6943236 44.1668371,15.8854447 44.5006115,15.1857918 C44.834386,14.486139 45.3121238,13.9469515 45.9339255,13.5681318 C46.5602416,13.1893121 47.2826672,13 48.1011018,13 C49.2029487,13 50.0899039,13.2918887 50.7619673,13.8756662 C51.4340307,14.4594436 51.8249893,15.2838703 51.9346422,16.3489464 L50.2064791,16.3489464 C50.1242143,15.6492935 49.9138371,15.1456999 49.5755481,14.8381656 C49.2417737,14.5262309 48.7502916,14.3702635 48.1011018,14.3702635 C47.3466732,14.3702635 46.766004,14.6398572 46.3590941,15.1791424 C45.9567991,15.7138317 45.7510367,16.5004156 45.7419073,17.5387963 L45.7419073,18.4010659 C45.7419073,19.4527453 45.9339255,20.254877 46.3179617,20.807461 C46.7066128,21.360045 47.2735378,21.6363859 48.0187366,21.6363859 C48.7000298,21.6363859 49.2120781,21.4870679 49.5549819,21.1885298 C49.8978858,20.8898939 50.1149846,20.3930475 50.2064791,19.6978927 L51.9346422,19.6978927 Z M62.7145436,18.253997 C62.7145436,19.2076957 62.5452988,20.0454212 62.2070098,20.7673691 C61.8687208,21.4848189 61.3840607,22.0374028 60.7531296,22.425121 C60.1267132,22.8084389 59.4043879,23 58.5859533,23 C57.7767484,23 57.0543229,22.8084389 56.4188773,22.425121 C55.7879463,22.0374028 55.2986713,21.4870679 54.9512529,20.7741163 C54.6083491,20.0610668 54.4345898,19.2388892 54.4300752,18.3074855 L54.4300752,17.7593018 C54.4300752,16.8101012 54.6014268,15.9723757 54.9443307,15.2459297 C55.2918494,14.5195815 55.7788169,13.9647484 56.4051331,13.5815284 C57.0360641,13.1938102 57.7584897,13 58.5723094,13 C59.3861292,13 60.106147,13.1915611 60.7325634,13.5747812 C61.3634945,13.9536009 61.8503617,14.5017846 62.1932656,15.2192343 C62.5361694,15.9322838 62.7099287,16.7633599 62.7145436,17.7125605 L62.7145436,18.253997 Z M60.9794582,17.746003 C60.9794582,16.6675304 60.769081,15.8408546 60.3485272,15.2659757 C59.9324879,14.6910967 59.3403819,14.4037061 58.5723094,14.4037061 C57.8224957,14.4037061 57.2349042,14.6910967 56.8097356,15.2659757 C56.3890814,15.8364543 56.17429,16.6452354 56.1650603,17.6925145 L56.1650603,18.253997 C56.1650603,19.3235711 56.3777449,20.1501491 56.8029136,20.7339266 C57.2326971,21.317704 57.8270102,21.6095927 58.5859533,21.6095927 C59.3541261,21.6095927 59.9438244,21.3244512 60.3553492,20.7539725 C60.7713884,20.1835916 60.9794582,19.3502665 60.9794582,18.253997 L60.9794582,17.746003 Z M73.6177418,22.8663277 L71.8826565,22.8663277 L67.4318289,15.9612282 L67.4318289,22.8663277 L65.6967435,22.8663277 L65.6967435,13.1336723 L67.4318289,13.1336723 L71.8964007,20.0654672 L71.8964007,13.1336723 L73.6177418,13.1336723 L73.6177418,22.8663277 Z M83.9312418,14.4972865 L80.8177191,14.4972865 L80.8177191,22.8663277 L79.096378,22.8663277 L79.096378,14.4972865 L76.0102435,14.4972865 L76.0102435,13.1336723 L83.9312418,13.1336723 L83.9312418,14.4972865 Z M91.2683606,20.6002542 L87.4004093,20.6002542 L86.5912044,22.8663277 L84.7874982,22.8663277 L88.5594404,13.1336723 L90.1161515,13.1336723 L93.8949157,22.8663277 L92.0844878,22.8663277 L91.2683606,20.6002542 Z M87.8873769,19.2366401 L90.781393,19.2366401 L89.3343348,15.1991884 L87.8873769,19.2366401 Z M98.1185118,22.8663277 L96.3902483,22.8663277 L96.3902483,13.1336723 L98.1185118,13.1336723 L98.1185118,22.8663277 Z M109.426413,22.8663277 L107.691327,22.8663277 L103.2405,15.9612282 L103.2405,22.8663277 L101.505414,22.8663277 L101.505414,13.1336723 L103.2405,13.1336723 L107.705072,20.0654672 L107.705072,13.1336723 L109.426413,13.1336723 L109.426413,22.8663277 Z M118.567138,18.5213416 L114.466036,18.5213416 L114.466036,21.5160123 L119.259767,21.5160123 L119.259767,22.8663277 L112.73095,22.8663277 L112.73095,13.1336723 L119.211813,13.1336723 L119.211813,14.4972865 L114.466036,14.4972865 L114.466036,17.1845206 L118.567138,17.1845206 L118.567138,18.5213416 Z M121.926552,22.8663277 L121.926552,13.1336723 L124.875545,13.1336723 C125.757985,13.1336723 126.539802,13.3252335 127.220995,13.7085513 C127.906803,14.0917714 128.43711,14.6354569 128.811716,15.3395101 C129.186923,16.0436611 129.374527,16.8502909 129.374527,17.7593018 L129.374527,18.2473476 C129.374527,19.169755 129.184917,19.980883 128.804693,20.6804381 C128.430288,21.3800909 127.893058,21.9193761 127.193506,22.2980981 C126.498569,22.6769178 125.700801,22.8663277 124.800102,22.8663277 L121.926552,22.8663277 Z M123.661637,14.4972865 L123.661637,21.5160123 L124.79328,21.5160123 C125.703109,21.5160123 126.400353,21.2397692 126.884913,20.6871853 C127.374188,20.1301032 127.62329,19.3324696 127.632419,18.2940889 L127.632419,17.7526524 C127.632419,16.6964748 127.396961,15.8899428 126.926045,15.3328607 C126.45513,14.7757786 125.771629,14.4972865 124.875545,14.4972865 L123.661637,14.4972865 Z M137.108423,22.8663277 L137.108423,13.1336723 L140.530439,13.1336723 C141.660075,13.1336723 142.51884,13.3542757 143.108739,13.7953845 C143.698638,14.2365912 143.993587,14.8939031 143.993587,15.7673202 C143.993587,16.213025 143.87019,16.6140419 143.623396,16.9705667 C143.376601,17.3270914 143.015439,17.6033345 142.539908,17.7994915 C143.079645,17.9420623 143.494982,18.211656 143.787925,18.6082726 C144.084881,19.0003911 144.233359,19.4727913 144.233359,20.0253753 C144.233359,20.9389821 143.93239,21.6407862 143.328446,22.1309832 C142.729518,22.6211803 141.86975,22.8663277 140.750146,22.8663277 L137.108423,22.8663277 Z M138.843007,18.4746003 L138.843007,21.5160123 L140.770211,21.5160123 C141.314965,21.5160123 141.739331,21.3845891 142.046319,21.1216447 C142.352304,20.8587004 142.505798,20.4932773 142.505798,20.0253753 C142.505798,19.0137877 141.97509,18.4968953 140.914676,18.4746003 L138.843007,18.4746003 Z M138.843007,17.2312619 L140.544484,17.2312619 C141.083219,17.2312619 141.504575,17.1131374 141.805544,16.8769863 C142.112532,16.636337 142.265023,16.2977069 142.265023,15.8609006 C142.265023,15.3796998 142.123568,15.0320735 141.840657,14.8181196 C141.561759,14.6042634 141.124351,14.4972865 140.530439,14.4972865 L138.843007,14.4972865 L138.843007,17.2312619 Z M154.526494,13.1336723 L154.526494,19.6376571 C154.526494,20.6715396 154.186399,21.491566 153.505206,22.0976385 C152.828026,22.6992128 151.925119,23 150.795483,23 C149.652805,23 148.744882,22.7037109 148.073722,22.1109373 C147.401558,21.513861 147.065476,20.6871853 147.065476,19.6310077 L147.065476,13.1336723 L148.793037,13.1336723 L148.793037,19.6444042 C148.793037,20.294969 148.962583,20.7919132 149.300671,21.1350413 C149.63876,21.4781695 150.137365,21.6497824 150.795483,21.6497824 C152.130782,21.6497824 152.798932,20.9634283 152.798932,19.5909158 L152.798932,13.1336723 L154.526494,13.1336723 Z M164.853738,14.4972865 L161.740717,14.4972865 L161.740717,22.8663277 L160.019175,22.8663277 L160.019175,14.4972865 L156.933241,14.4972865 L156.933241,13.1336723 L164.853738,13.1336723 L164.853738,14.4972865 Z M174.74859,14.4972865 L171.635569,14.4972865 L171.635569,22.8663277 L169.914027,22.8663277 L169.914027,14.4972865 L166.828093,14.4972865 L166.828093,13.1336723 L174.74859,13.1336723 L174.74859,14.4972865 Z M185.096902,18.253997 C185.096902,19.2076957 184.927356,20.0454212 184.589268,20.7673691 C184.25118,21.4848189 183.76662,22.0374028 183.135588,22.425121 C182.50857,22.8084389 181.786245,23 180.968613,23 C180.159007,23 179.436681,22.8084389 178.800634,22.425121 C178.170606,22.0374028 177.68103,21.4870679 177.333912,20.7741163 C176.990808,20.0610668 176.817249,19.2388892 176.812233,18.3074855 L176.812233,17.7593018 C176.812233,16.8101012 176.983785,15.9723757 177.32689,15.2459297 C177.674007,14.5195815 178.160573,13.9647484 178.787592,13.5815284 C179.418623,13.1938102 180.140948,13 180.954568,13 C181.768187,13 182.488505,13.1915611 183.114521,13.5747812 C183.745552,13.9536009 184.233121,14.5017846 184.575223,15.2192343 C184.918327,15.9322838 185.091886,16.7633599 185.096902,17.7125605 L185.096902,18.253997 Z M183.361315,17.746003 C183.361315,16.6675304 183.15164,15.8408546 182.730284,15.2659757 C182.314947,14.6910967 181.723041,14.4037061 180.954568,14.4037061 C180.205155,14.4037061 179.617263,14.6910967 179.191893,15.2659757 C178.77154,15.8364543 178.556849,16.6452354 178.54782,17.6925145 L178.54782,18.253997 C178.54782,19.3235711 178.759501,20.1501491 179.184871,20.7339266 C179.615256,21.317704 180.209168,21.6095927 180.968613,21.6095927 C181.736083,21.6095927 182.325982,21.3244512 182.737306,20.7539725 C183.153647,20.1835916 183.361315,19.3502665 183.361315,18.253997 L183.361315,17.746003 Z M196,22.8663277 L194.265416,22.8663277 L189.814087,15.9612282 L189.814087,22.8663277 L188.0785,22.8663277 L188.0785,13.1336723 L189.814087,13.1336723 L194.278458,20.0654672 L194.278458,13.1336723 L196,13.1336723 L196,22.8663277 Z" id="Text-Label" fill="#FFFFFF" fill-rule="nonzero"></path>
        <g id="add-24px" transform="translate(12.000000, 6.000000)">
            <polygon id="Path" fill="#FFFFFF" fill-rule="nonzero" points="19 13 13 13 13 19 11 19 11 13 5 13 5 11 11 11 11 5 13 5 13 11 19 11"></polygon>
            <polygon id="Path" points="0 0 24 0 24 24 0 24"></polygon>
        </g>
    </g>
</svg>
