<?xml version="1.0" encoding="UTF-8"?>
<svg width="197px" height="36px" viewBox="0 0 197 36" version="1.1" xmlns="http://www.w3.org/2000/svg" xmlns:xlink="http://www.w3.org/1999/xlink">
    <!-- Generator: Sketch 61.1 (89650) - https://sketch.com -->
    <title>Outlined Button (Icon)</title>
    <desc>Created with Sketch.</desc>
    <g id="Outlined-Button-(Icon)" stroke="none" stroke-width="1" fill="none" fill-rule="evenodd">
        <g id="outlined-button">
            <rect id="Container" stroke-opacity="0.12" stroke="#000000" x="0.5" y="0.5" width="196" height="35" rx="3.5"></rect>
            <path d="M48.2578,18.263 C48.2578,19.2383 48.0892,20.095 47.7519,20.8333 C47.4147,21.567 46.9316,22.1321 46.3027,22.5286 C45.6784,22.9206 44.9583,23.1165 44.1425,23.1165 C43.3359,23.1165 42.6159,22.9206 41.9824,22.5286 C41.3535,22.1321 40.8659,21.5693 40.5195,20.8402 C40.1777,20.111 40.0045,19.2702 40,18.3177 L40,17.7571 C40,16.7864 40.1709,15.9297 40.5127,15.1868 C40.859,14.444 41.3444,13.8766 41.9687,13.4847 C42.5976,13.0882 43.3177,12.89 44.1289,12.89 C44.9401,12.89 45.6578,13.0859 46.2822,13.4778 C46.9111,13.8652 47.3965,14.4258 47.7382,15.1595 C48.08,15.8887 48.2532,16.7386 48.2578,17.7093 L48.2578,18.263 Z M46.5283,17.7435 C46.5283,16.6406 46.3187,15.7952 45.8994,15.2073 C45.4847,14.6194 44.8945,14.3255 44.1289,14.3255 C43.3815,14.3255 42.7959,14.6194 42.372,15.2073 C41.9528,15.7907 41.7386,16.6178 41.7295,17.6888 L41.7295,18.263 C41.7295,19.3568 41.9414,20.2021 42.3652,20.7991 C42.7936,21.3961 43.386,21.6946 44.1425,21.6946 C44.9082,21.6946 45.4961,21.403 45.9062,20.8196 C46.3209,20.2363 46.5283,19.3841 46.5283,18.263 L46.5283,17.7435 Z M58.5107,13.0267 L58.5107,19.678 C58.5107,20.7353 58.1712,21.5739 57.4922,22.1937 C56.8177,22.8089 55.9176,23.1165 54.792,23.1165 C53.6526,23.1165 52.748,22.8135 52.0781,22.2073 C51.4082,21.5967 51.0732,20.7513 51.0732,19.6712 L51.0732,13.0267 L52.7959,13.0267 L52.7959,19.6849 C52.7959,20.3502 52.9645,20.8584 53.3017,21.2093 C53.639,21.5602 54.1357,21.7357 54.792,21.7357 C56.1227,21.7357 56.7881,21.0338 56.7881,19.6302 L56.7881,13.0267 L58.5107,13.0267 Z M68.8047,14.4212 L65.7011,14.4212 L65.7011,22.9798 L63.9853,22.9798 L63.9853,14.4212 L60.9091,14.4212 L60.9091,13.0267 L68.8047,13.0267 L68.8047,14.4212 Z M73.0966,21.5989 L77.6152,21.5989 L77.6152,22.9798 L71.3672,22.9798 L71.3672,13.0267 L73.0966,13.0267 L73.0966,21.5989 Z M82.0166,22.9798 L80.2939,22.9798 L80.2939,13.0267 L82.0166,13.0267 L82.0166,22.9798 Z M93.2881,22.9798 L91.5586,22.9798 L87.122,15.9183 L87.122,22.9798 L85.3925,22.9798 L85.3925,13.0267 L87.122,13.0267 L91.5722,20.1155 L91.5722,13.0267 L93.2881,13.0267 L93.2881,22.9798 Z M102.3994,18.5364 L98.3115,18.5364 L98.3115,21.5989 L103.0898,21.5989 L103.0898,22.9798 L96.582,22.9798 L96.582,13.0267 L103.042,13.0267 L103.042,14.4212 L98.3115,14.4212 L98.3115,17.1693 L102.3994,17.1693 L102.3994,18.5364 Z M105.748,22.9798 L105.748,13.0267 L108.6875,13.0267 C109.567,13.0267 110.3463,13.2226 111.0254,13.6146 C111.7089,14.0065 112.2376,14.5625 112.6113,15.2825 C112.985,16.0026 113.1718,16.8275 113.1718,17.7571 L113.1718,18.2562 C113.1718,19.1995 112.9827,20.029 112.6045,20.7444 C112.2308,21.4599 111.6953,22.0114 110.998,22.3987 C110.3053,22.7861 109.5101,22.9798 108.6123,22.9798 L105.748,22.9798 Z M107.4775,14.4212 L107.4775,21.5989 L108.6054,21.5989 C109.5123,21.5989 110.2073,21.3164 110.6904,20.7513 C111.178,20.1816 111.4264,19.3659 111.4355,18.304 L111.4355,17.7503 C111.4355,16.6702 111.2008,15.8454 110.7314,15.2757 C110.262,14.706 109.5807,14.4212 108.6875,14.4212 L107.4775,14.4212 Z M120.8808,22.9798 L120.8808,13.0267 L124.292,13.0267 C125.4177,13.0267 126.2747,13.2523 126.8627,13.7034 C127.4497,14.1546 127.7437,14.8268 127.7437,15.72 C127.7437,16.1758 127.6207,16.5859 127.3747,16.9505 C127.1287,17.3151 126.7687,17.5976 126.2947,17.7982 C126.8327,17.944 127.2477,18.2197 127.5387,18.6253 C127.8357,19.0263 127.9837,19.5094 127.9837,20.0745 C127.9837,21.0088 127.6827,21.7265 127.0807,22.2278 C126.4837,22.7291 125.6277,22.9798 124.5107,22.9798 L120.8808,22.9798 Z M122.6103,18.4886 L122.6103,21.5989 L124.5317,21.5989 C125.0737,21.5989 125.4977,21.4645 125.8027,21.1956 C126.1077,20.9267 126.2607,20.553 126.2607,20.0745 C126.2607,19.04 125.7317,18.5114 124.6747,18.4886 L122.6103,18.4886 Z M122.6103,17.2171 L124.3057,17.2171 C124.8437,17.2171 125.2627,17.0963 125.5637,16.8548 C125.8687,16.6087 126.0217,16.2624 126.0217,15.8157 C126.0217,15.3236 125.8797,14.9681 125.5977,14.7493 C125.3197,14.5306 124.8847,14.4212 124.292,14.4212 L122.6103,14.4212 L122.6103,17.2171 Z M138.2427,13.0267 L138.2427,19.678 C138.2427,20.7353 137.9037,21.5739 137.2247,22.1937 C136.5497,22.8089 135.6497,23.1165 134.5247,23.1165 C133.3847,23.1165 132.4807,22.8135 131.8107,22.2073 C131.1407,21.5967 130.8057,20.7513 130.8057,19.6712 L130.8057,13.0267 L132.5287,13.0267 L132.5287,19.6849 C132.5287,20.3502 132.6967,20.8584 133.0337,21.2093 C133.3717,21.5602 133.8677,21.7357 134.5247,21.7357 C135.8547,21.7357 136.5207,21.0338 136.5207,19.6302 L136.5207,13.0267 L138.2427,13.0267 Z M148.5367,14.4212 L145.4337,14.4212 L145.4337,22.9798 L143.7177,22.9798 L143.7177,14.4212 L140.6417,14.4212 L140.6417,13.0267 L148.5367,13.0267 L148.5367,14.4212 Z M158.4007,14.4212 L155.2967,14.4212 L155.2967,22.9798 L153.5807,22.9798 L153.5807,14.4212 L150.5047,14.4212 L150.5047,13.0267 L158.4007,13.0267 L158.4007,14.4212 Z M168.7147,18.263 C168.7147,19.2383 168.5457,20.095 168.2087,20.8333 C167.8717,21.567 167.3887,22.1321 166.7597,22.5286 C166.1357,22.9206 165.4157,23.1165 164.5997,23.1165 C163.7927,23.1165 163.0727,22.9206 162.4397,22.5286 C161.8107,22.1321 161.3227,21.5693 160.9767,20.8402 C160.6347,20.111 160.4617,19.2702 160.4567,18.3177 L160.4567,17.7571 C160.4567,16.7864 160.6277,15.9297 160.9697,15.1868 C161.3157,14.444 161.8017,13.8766 162.4257,13.4847 C163.0547,13.0882 163.7747,12.89 164.5857,12.89 C165.3967,12.89 166.1147,13.0859 166.7397,13.4778 C167.3677,13.8652 167.8537,14.4258 168.1957,15.1595 C168.5367,15.8887 168.7107,16.7386 168.7147,17.7093 L168.7147,18.263 Z M166.9857,17.7435 C166.9857,16.6406 166.7757,15.7952 166.3567,15.2073 C165.9417,14.6194 165.3517,14.3255 164.5857,14.3255 C163.8387,14.3255 163.2527,14.6194 162.8287,15.2073 C162.4097,15.7907 162.1957,16.6178 162.1867,17.6888 L162.1867,18.263 C162.1867,19.3568 162.3987,20.2021 162.8227,20.7991 C163.2507,21.3961 163.8427,21.6946 164.5997,21.6946 C165.3647,21.6946 165.9527,21.403 166.3637,20.8196 C166.7777,20.2363 166.9857,19.3841 166.9857,18.263 L166.9857,17.7435 Z M179.5827,22.9798 L177.8537,22.9798 L173.4167,15.9183 L173.4167,22.9798 L171.6877,22.9798 L171.6877,13.0267 L173.4167,13.0267 L177.8667,20.1155 L177.8667,13.0267 L179.5827,13.0267 L179.5827,22.9798 Z" id="Text-Label" fill="#6200EE" fill-rule="nonzero"></path>
        </g>
        <g id="add-24px" transform="translate(12.000000, 6.000000)">
            <polygon id="Path" fill="#6200EE" fill-rule="nonzero" points="19 13 13 13 13 19 11 19 11 13 5 13 5 11 11 11 11 5 13 5 13 11 19 11"></polygon>
            <polygon id="Path" points="0 0 24 0 24 24 0 24"></polygon>
        </g>
    </g>
</svg>
