<?xml version="1.0" encoding="UTF-8"?>
<svg width="169px" height="36px" viewBox="0 0 169 36" version="1.1" xmlns="http://www.w3.org/2000/svg" xmlns:xlink="http://www.w3.org/1999/xlink">
    <!-- Generator: Sketch 61 (89581) - https://sketch.com -->
    <title>Outlined Button</title>
    <desc>Created with Sketch.</desc>
    <g id="Outlined-Button" stroke="none" stroke-width="1" fill="none" fill-rule="evenodd">
        <g id="outlined-button">
            <rect id="Container" stroke-opacity="0.12" stroke="#000000" x="0.5" y="0.5" width="168" height="35" rx="3.5"></rect>
            <path d="M22.9678,18.263 C22.9678,19.2383 22.7992,20.095 22.4619,20.8333 C22.1247,21.567 21.6416,22.1321 21.0127,22.5286 C20.3884,22.9206 19.6683,23.1165 18.8525,23.1165 C18.0459,23.1165 17.3259,22.9206 16.6924,22.5286 C16.0635,22.1321 15.5759,21.5693 15.2295,20.8402 C14.8877,20.111 14.7145,19.2702 14.71,18.3177 L14.71,17.7571 C14.71,16.7864 14.8809,15.9297 15.2227,15.1868 C15.569,14.444 16.0544,13.8766 16.6787,13.4847 C17.3076,13.0882 18.0277,12.89 18.8389,12.89 C19.6501,12.89 20.3678,13.0859 20.9922,13.4778 C21.6211,13.8652 22.1065,14.4258 22.4482,15.1595 C22.79,15.8887 22.9632,16.7386 22.9678,17.7093 L22.9678,18.263 Z M21.2383,17.7435 C21.2383,16.6406 21.0287,15.7952 20.6094,15.2073 C20.1947,14.6194 19.6045,14.3255 18.8389,14.3255 C18.0915,14.3255 17.5059,14.6194 17.082,15.2073 C16.6628,15.7907 16.4486,16.6178 16.4395,17.6888 L16.4395,18.263 C16.4395,19.3568 16.6514,20.2021 17.0752,20.7991 C17.5036,21.3961 18.096,21.6946 18.8525,21.6946 C19.6182,21.6946 20.2061,21.403 20.6162,20.8196 C21.0309,20.2363 21.2383,19.3841 21.2383,18.263 L21.2383,17.7435 Z M33.2207,13.0267 L33.2207,19.678 C33.2207,20.7353 32.8812,21.5739 32.2022,22.1937 C31.5277,22.8089 30.6276,23.1165 29.502,23.1165 C28.3626,23.1165 27.458,22.8135 26.7881,22.2073 C26.1182,21.5967 25.7832,20.7513 25.7832,19.6712 L25.7832,13.0267 L27.5059,13.0267 L27.5059,19.6849 C27.5059,20.3502 27.6745,20.8584 28.0117,21.2093 C28.349,21.5602 28.8457,21.7357 29.502,21.7357 C30.8327,21.7357 31.4981,21.0338 31.4981,19.6302 L31.4981,13.0267 L33.2207,13.0267 Z M43.5147,14.4212 L40.4111,14.4212 L40.4111,22.9798 L38.6953,22.9798 L38.6953,14.4212 L35.6191,14.4212 L35.6191,13.0267 L43.5147,13.0267 L43.5147,14.4212 Z M47.8066,21.5989 L52.3252,21.5989 L52.3252,22.9798 L46.0772,22.9798 L46.0772,13.0267 L47.8066,13.0267 L47.8066,21.5989 Z M56.7266,22.9798 L55.0039,22.9798 L55.0039,13.0267 L56.7266,13.0267 L56.7266,22.9798 Z M67.9981,22.9798 L66.2686,22.9798 L61.832,15.9183 L61.832,22.9798 L60.1025,22.9798 L60.1025,13.0267 L61.832,13.0267 L66.2822,20.1155 L66.2822,13.0267 L67.9981,13.0267 L67.9981,22.9798 Z M77.1094,18.5364 L73.0215,18.5364 L73.0215,21.5989 L77.7998,21.5989 L77.7998,22.9798 L71.292,22.9798 L71.292,13.0267 L77.752,13.0267 L77.752,14.4212 L73.0215,14.4212 L73.0215,17.1693 L77.1094,17.1693 L77.1094,18.5364 Z M80.458,22.9798 L80.458,13.0267 L83.3975,13.0267 C84.277,13.0267 85.0563,13.2226 85.7354,13.6146 C86.4189,14.0065 86.9476,14.5625 87.3213,15.2825 C87.695,16.0026 87.8818,16.8275 87.8818,17.7571 L87.8818,18.2562 C87.8818,19.1995 87.6927,20.029 87.3145,20.7444 C86.9408,21.4599 86.4053,22.0114 85.708,22.3987 C85.0153,22.7861 84.2201,22.9798 83.3223,22.9798 L80.458,22.9798 Z M82.1875,14.4212 L82.1875,21.5989 L83.3154,21.5989 C84.2223,21.5989 84.9173,21.3164 85.4004,20.7513 C85.888,20.1816 86.1364,19.3659 86.1455,18.304 L86.1455,17.7503 C86.1455,16.6702 85.9108,15.8454 85.4414,15.2757 C84.972,14.706 84.2907,14.4212 83.3975,14.4212 L82.1875,14.4212 Z M95.5908,22.9798 L95.5908,13.0267 L99.002,13.0267 C100.1277,13.0267 100.9847,13.2523 101.5727,13.7034 C102.1597,14.1546 102.4537,14.8268 102.4537,15.72 C102.4537,16.1758 102.3307,16.5859 102.0847,16.9505 C101.8387,17.3151 101.4787,17.5976 101.0047,17.7982 C101.5427,17.944 101.9577,18.2197 102.2487,18.6253 C102.5457,19.0263 102.6937,19.5094 102.6937,20.0745 C102.6937,21.0088 102.3927,21.7265 101.7907,22.2278 C101.1937,22.7291 100.3377,22.9798 99.2207,22.9798 L95.5908,22.9798 Z M97.3203,18.4886 L97.3203,21.5989 L99.2417,21.5989 C99.7837,21.5989 100.2077,21.4645 100.5127,21.1956 C100.8177,20.9267 100.9707,20.553 100.9707,20.0745 C100.9707,19.04 100.4417,18.5114 99.3847,18.4886 L97.3203,18.4886 Z M97.3203,17.2171 L99.0157,17.2171 C99.5537,17.2171 99.9727,17.0963 100.2737,16.8548 C100.5787,16.6087 100.7317,16.2624 100.7317,15.8157 C100.7317,15.3236 100.5897,14.9681 100.3077,14.7493 C100.0297,14.5306 99.5947,14.4212 99.002,14.4212 L97.3203,14.4212 L97.3203,17.2171 Z M112.9527,13.0267 L112.9527,19.678 C112.9527,20.7353 112.6137,21.5739 111.9347,22.1937 C111.2597,22.8089 110.3597,23.1165 109.2347,23.1165 C108.0947,23.1165 107.1907,22.8135 106.5207,22.2073 C105.8507,21.5967 105.5157,20.7513 105.5157,19.6712 L105.5157,13.0267 L107.2387,13.0267 L107.2387,19.6849 C107.2387,20.3502 107.4067,20.8584 107.7437,21.2093 C108.0817,21.5602 108.5777,21.7357 109.2347,21.7357 C110.5647,21.7357 111.2307,21.0338 111.2307,19.6302 L111.2307,13.0267 L112.9527,13.0267 Z M123.2467,14.4212 L120.1437,14.4212 L120.1437,22.9798 L118.4277,22.9798 L118.4277,14.4212 L115.3517,14.4212 L115.3517,13.0267 L123.2467,13.0267 L123.2467,14.4212 Z M133.1107,14.4212 L130.0067,14.4212 L130.0067,22.9798 L128.2907,22.9798 L128.2907,14.4212 L125.2147,14.4212 L125.2147,13.0267 L133.1107,13.0267 L133.1107,14.4212 Z M143.4247,18.263 C143.4247,19.2383 143.2557,20.095 142.9187,20.8333 C142.5817,21.567 142.0987,22.1321 141.4697,22.5286 C140.8457,22.9206 140.1257,23.1165 139.3097,23.1165 C138.5027,23.1165 137.7827,22.9206 137.1497,22.5286 C136.5207,22.1321 136.0327,21.5693 135.6867,20.8402 C135.3447,20.111 135.1717,19.2702 135.1667,18.3177 L135.1667,17.7571 C135.1667,16.7864 135.3377,15.9297 135.6797,15.1868 C136.0257,14.444 136.5117,13.8766 137.1357,13.4847 C137.7647,13.0882 138.4847,12.89 139.2957,12.89 C140.1067,12.89 140.8247,13.0859 141.4497,13.4778 C142.0777,13.8652 142.5637,14.4258 142.9057,15.1595 C143.2467,15.8887 143.4207,16.7386 143.4247,17.7093 L143.4247,18.263 Z M141.6957,17.7435 C141.6957,16.6406 141.4857,15.7952 141.0667,15.2073 C140.6517,14.6194 140.0617,14.3255 139.2957,14.3255 C138.5487,14.3255 137.9627,14.6194 137.5387,15.2073 C137.1197,15.7907 136.9057,16.6178 136.8967,17.6888 L136.8967,18.263 C136.8967,19.3568 137.1087,20.2021 137.5327,20.7991 C137.9607,21.3961 138.5527,21.6946 139.3097,21.6946 C140.0747,21.6946 140.6627,21.403 141.0737,20.8196 C141.4877,20.2363 141.6957,19.3841 141.6957,18.263 L141.6957,17.7435 Z M154.2927,22.9798 L152.5637,22.9798 L148.1267,15.9183 L148.1267,22.9798 L146.3977,22.9798 L146.3977,13.0267 L148.1267,13.0267 L152.5767,20.1155 L152.5767,13.0267 L154.2927,13.0267 L154.2927,22.9798 Z" id="Text-Label" fill="#6200EE" fill-rule="nonzero"></path>
        </g>
    </g>
</svg>
