<?xml version="1.0" encoding="UTF-8"?>
<svg width="119px" height="36px" viewBox="0 0 119 36" version="1.1" xmlns="http://www.w3.org/2000/svg" xmlns:xlink="http://www.w3.org/1999/xlink">
    <!-- Generator: Sketch 61 (89581) - https://sketch.com -->
    <title>Text Button</title>
    <desc>Created with Sketch.</desc>
    <g id="Text-Button" stroke="none" stroke-width="1" fill="none" fill-rule="evenodd">
        <g id="text-button" transform="translate(8.000000, 12.000000)" fill="#6200EE" fill-rule="nonzero">
            <path d="M8.2031,2.4414 L5.0996,2.4414 L5.0996,11 L3.3838,11 L3.3838,2.4414 L0.30762,2.4414 L0.30762,1.0469 L8.2031,1.0469 L8.2031,2.4414 Z M16.583,6.5566 L12.4951,6.5566 L12.4951,9.6191 L17.2734,9.6191 L17.2734,11 L10.7656,11 L10.7656,1.0469 L17.2256,1.0469 L17.2256,2.4414 L12.4951,2.4414 L12.4951,5.1895 L16.583,5.1895 L16.583,6.5566 Z M23.3564,4.6426 L25.4482,1.0469 L27.4443,1.0469 L24.4365,5.9824 L27.5127,11 L25.4961,11 L23.3564,7.3496 L21.21,11 L19.2002,11 L22.2832,5.9824 L19.2686,1.0469 L21.2646,1.0469 L23.3564,4.6426 Z M37.2324,2.4414 L34.1289,2.4414 L34.1289,11 L32.4131,11 L32.4131,2.4414 L29.3369,2.4414 L29.3369,1.0469 L37.2324,1.0469 L37.2324,2.4414 Z M44.1211,11 L44.1211,1.0469 L47.5322,1.0469 C48.6579,1.0469 49.5146,1.2725 50.1025,1.7236 C50.6904,2.1748 50.9844,2.847 50.9844,3.7402 C50.9844,4.196 50.8613,4.6061 50.6152,4.9707 C50.3691,5.3353 50.0091,5.6178 49.5352,5.8184 C50.0729,5.9642 50.4876,6.2399 50.7793,6.6455 C51.0755,7.0465 51.2236,7.5296 51.2236,8.0947 C51.2236,9.029 50.9229,9.7467 50.3213,10.248 C49.7243,10.7493 48.8675,11 47.751,11 L44.1211,11 Z M45.8506,6.5088 L45.8506,9.6191 L47.7715,9.6191 C48.3138,9.6191 48.7376,9.4847 49.043,9.2158 C49.3483,8.9469 49.501,8.5732 49.501,8.0947 C49.501,7.0602 48.9723,6.5316 47.915,6.5088 L45.8506,6.5088 Z M45.8506,5.2373 L47.5459,5.2373 C48.0837,5.2373 48.5029,5.1165 48.8037,4.875 C49.109,4.6289 49.2617,4.2826 49.2617,3.8359 C49.2617,3.3438 49.1204,2.9883 48.8379,2.7695 C48.5599,2.5508 48.1247,2.4414 47.5322,2.4414 L45.8506,2.4414 L45.8506,5.2373 Z M61.4834,1.0469 L61.4834,7.6982 C61.4834,8.7555 61.1439,9.5941 60.4648,10.2139 C59.7904,10.8291 58.8903,11.1367 57.7646,11.1367 C56.6253,11.1367 55.7207,10.8337 55.0508,10.2275 C54.3809,9.6169 54.0459,8.7715 54.0459,7.6914 L54.0459,1.0469 L55.7686,1.0469 L55.7686,7.7051 C55.7686,8.3704 55.9372,8.8786 56.2744,9.2295 C56.6117,9.5804 57.1084,9.7559 57.7646,9.7559 C59.0954,9.7559 59.7607,9.054 59.7607,7.6504 L59.7607,1.0469 L61.4834,1.0469 Z M71.7773,2.4414 L68.6738,2.4414 L68.6738,11 L66.958,11 L66.958,2.4414 L63.8818,2.4414 L63.8818,1.0469 L71.7773,1.0469 L71.7773,2.4414 Z M81.6406,2.4414 L78.5371,2.4414 L78.5371,11 L76.8213,11 L76.8213,2.4414 L73.7451,2.4414 L73.7451,1.0469 L81.6406,1.0469 L81.6406,2.4414 Z M91.9551,6.2832 C91.9551,7.2585 91.7865,8.1152 91.4492,8.8535 C91.112,9.5872 90.6289,10.1523 90,10.5488 C89.3757,10.9408 88.6556,11.1367 87.8398,11.1367 C87.0332,11.1367 86.3132,10.9408 85.6797,10.5488 C85.0508,10.1523 84.5632,9.5895 84.2168,8.8604 C83.875,8.1312 83.7018,7.2904 83.6973,6.3379 L83.6973,5.7773 C83.6973,4.8066 83.8682,3.9499 84.21,3.207 C84.5563,2.4642 85.0417,1.8968 85.666,1.5049 C86.2949,1.1084 87.015,0.9102 87.8262,0.9102 C88.6374,0.9102 89.3551,1.1061 89.9795,1.498 C90.6084,1.8854 91.0938,2.446 91.4355,3.1797 C91.7773,3.9089 91.9505,4.7588 91.9551,5.7295 L91.9551,6.2832 Z M90.2256,5.7637 C90.2256,4.6608 90.016,3.8154 89.5967,3.2275 C89.182,2.6396 88.5918,2.3457 87.8262,2.3457 C87.0788,2.3457 86.4932,2.6396 86.0693,3.2275 C85.6501,3.8109 85.4359,4.638 85.4268,5.709 L85.4268,6.2832 C85.4268,7.377 85.6387,8.2223 86.0625,8.8193 C86.4909,9.4163 87.0833,9.7148 87.8398,9.7148 C88.6055,9.7148 89.1934,9.4232 89.6035,8.8398 C90.0182,8.2565 90.2256,7.4043 90.2256,6.2832 L90.2256,5.7637 Z M102.823,11 L101.094,11 L96.657,3.9385 L96.657,11 L94.928,11 L94.928,1.0469 L96.657,1.0469 L101.107,8.1357 L101.107,1.0469 L102.823,1.0469 L102.823,11 Z" id="Text-Label"></path>
        </g>
    </g>
</svg>
