<?xml version="1.0" encoding="UTF-8"?>
<svg width="309px" height="36px" viewBox="0 0 309 36" version="1.1" xmlns="http://www.w3.org/2000/svg" xmlns:xlink="http://www.w3.org/1999/xlink">
    <!-- Generator: Sketch 61 (89581) - https://sketch.com -->
    <title>Button 7</title>
    <desc>Created with Sketch.</desc>
    <g id="Button-7" stroke="none" stroke-width="1" fill="none" fill-rule="evenodd">
        <path d="M205.5,0.5 L205.5,35.5 L305,35.5 C306.932997,35.5 308.5,33.9329966 308.5,32 L308.5,4 C308.5,2.06700338 306.932997,0.5 305,0.5 L205.5,0.5 Z" id="Container" stroke-opacity="0.12" stroke="#000000" fill-rule="nonzero"></path>
        <path d="M101.5,35.5 L101.5,0.5 L4,0.5 C2.06700338,0.5 0.5,2.06700338 0.5,4 L0.5,32 C0.5,33.9329966 2.06700338,35.5 4,35.5 L101.5,35.5 Z" id="Container" stroke-opacity="0.12" stroke="#000000" fill-rule="nonzero"></path>
        <rect id="Container" stroke="#6200EE" fill-opacity="0.08" fill="#6200EE" fill-rule="nonzero" x="101.5" y="0.5" width="104" height="35"></rect>
        <path d="M19.7426958,22.8598131 C20.8152837,22.8598131 21.6560836,22.6228304 22.2650954,22.1488652 C22.8741073,21.6748999 23.1786132,20.9817534 23.1786132,20.0694259 C23.1786132,19.5042279 23.0195429,19.0080107 22.7014024,18.5807744 C22.3832619,18.1535381 21.9287755,17.8753894 21.3379431,17.7463284 C21.7969744,17.5772141 22.1560187,17.3190921 22.415076,16.9719626 C22.6741332,16.6248331 22.8036619,16.2309746 22.8036619,15.7903872 C22.8036619,14.9092123 22.4946111,14.2472185 21.8765095,13.8044059 C21.258408,13.3615932 20.3994286,13.1401869 19.2995715,13.1401869 L19.2995715,13.1401869 L16,13.1401869 L16,22.8598131 L19.7426958,22.8598131 Z M19.4836385,17.2323097 L17.656603,17.2323097 L17.656603,14.4419226 L19.2995715,14.4419226 C19.9040384,14.4419226 20.3630697,14.558745 20.6766654,14.7923899 C20.990261,15.0260347 21.1470588,15.3831776 21.1470588,15.8638184 C21.1470588,16.2999555 20.9982145,16.6370717 20.7005259,16.8751669 C20.4028373,17.1132621 19.9972082,17.2323097 19.4836385,17.2323097 L19.4836385,17.2323097 Z M19.7426958,21.564753 L17.656603,21.564753 L17.656603,18.4405874 L19.9267628,18.4405874 C20.4766913,18.4405874 20.8811843,18.5829996 21.1402415,18.8678238 C21.3992988,19.152648 21.5288274,19.553182 21.5288274,20.0694259 C21.5288274,20.5545171 21.374302,20.9250111 21.0652513,21.1809079 C20.7562005,21.4368046 20.3153487,21.564753 19.7426958,21.564753 L19.7426958,21.564753 Z M29.8381379,23 C30.9970783,23 31.9355928,22.711838 32.6536813,22.135514 C33.3717699,21.55919 33.7308142,20.7325323 33.7308142,19.6555407 L33.7308142,19.6555407 L33.7308142,13.1401869 L32.0742111,13.1401869 L32.0742111,19.6555407 C32.0742111,20.3364486 31.8719647,20.8482421 31.4674718,21.1909212 C31.0629788,21.5336004 30.5198675,21.7049399 29.8381379,21.7049399 C29.1791326,21.7049399 28.6542008,21.5336004 28.2633424,21.1909212 C27.8724841,20.8482421 27.6770549,20.3364486 27.6770549,19.6555407 L27.6770549,19.6555407 L27.6770549,13.1401869 L26.0204519,13.1401869 L26.0204519,19.6555407 C26.0204519,20.7280819 26.3726789,21.5536271 27.0771328,22.1321762 C27.7815868,22.7107254 28.7019218,23 29.8381379,23 Z M40.738021,22.8598131 L40.738021,14.4419226 L43.7376315,14.4419226 L43.7376315,13.1401869 L36.0818076,13.1401869 L36.0818076,14.4419226 L39.081418,14.4419226 L39.081418,22.8598131 L40.738021,22.8598131 Z M50.1790027,22.8598131 L50.1790027,14.4419226 L53.1786132,14.4419226 L53.1786132,13.1401869 L45.5227892,13.1401869 L45.5227892,14.4419226 L48.5223997,14.4419226 L48.5223997,22.8598131 L50.1790027,22.8598131 Z M59.149591,23 C60.3630697,23 61.3504415,22.6094793 62.1117063,21.8284379 C62.872971,21.0473965 63.2536034,20.0627503 63.2536034,18.8744993 L63.2536034,18.8744993 L63.2536034,17.1255007 C63.2536034,15.9417 62.8718348,14.9581664 62.1082976,14.1748999 C61.3447604,13.3916333 60.3562524,13 59.1427737,13 C57.9565641,13 56.9919166,13.3916333 56.2488313,14.1748999 C55.505746,14.9581664 55.1342034,15.9417 55.1342034,17.1255007 L55.1342034,17.1255007 L55.1342034,18.8744993 C55.1342034,20.0627503 55.505746,21.0473965 56.2488313,21.8284379 C56.9919166,22.6094793 57.9588365,23 59.149591,23 Z M59.149591,21.6715621 C58.4178678,21.6715621 57.84067,21.4101024 57.4179977,20.8871829 C56.9953253,20.3642635 56.7839891,19.6933689 56.7839891,18.8744993 L56.7839891,18.8744993 L56.7839891,17.1121495 C56.7839891,16.3021807 56.9953253,15.6368491 57.4179977,15.1161549 C57.84067,14.5954606 58.4155954,14.3351135 59.1427737,14.3351135 C59.8972211,14.3351135 60.496007,14.5954606 60.9391313,15.1161549 C61.3822556,15.6368491 61.6038177,16.3021807 61.6038177,17.1121495 L61.6038177,17.1121495 L61.6038177,18.8744993 C61.6038177,19.6978193 61.384528,20.3698264 60.9459486,20.8905207 C60.5073692,21.411215 59.9085833,21.6715621 59.149591,21.6715621 Z M67.9497468,22.8598131 L67.9497468,15.777036 L67.9906506,15.7636849 L72.3946241,22.8598131 L74.0444098,22.8598131 L74.0444098,13.1401869 L72.3946241,13.1401869 L72.3946241,20.2162884 L72.3537203,20.2296395 L67.9497468,13.1401869 L66.2931437,13.1401869 L66.2931437,22.8598131 L67.9497468,22.8598131 Z M86,22.8598131 L86,13.1401869 L82.3254772,13.4873164 L82.3254772,14.682243 L84.343397,14.682243 L84.343397,22.8598131 L86,22.8598131 Z" id="BUTTON1" fill-opacity="0.6" fill="#000000" fill-rule="nonzero"></path>
        <path d="M120.771598,22.8598131 C121.852469,22.8598131 122.699762,22.6228304 123.313476,22.1488652 C123.927191,21.6748999 124.234049,20.9817534 124.234049,20.0694259 C124.234049,19.5042279 124.07375,19.0080107 123.753153,18.5807744 C123.432555,18.1535381 122.974559,17.8753894 122.379164,17.7463284 C122.84174,17.5772141 123.203557,17.3190921 123.464615,16.9719626 C123.725673,16.6248331 123.856202,16.2309746 123.856202,15.7903872 C123.856202,14.9092123 123.544764,14.2472185 122.92189,13.8044059 C122.299015,13.3615932 121.433402,13.1401869 120.325052,13.1401869 L120.325052,13.1401869 L117,13.1401869 L117,22.8598131 L120.771598,22.8598131 Z M120.51054,17.2323097 L118.669396,17.2323097 L118.669396,14.4419226 L120.325052,14.4419226 C120.934187,14.4419226 121.396763,14.558745 121.71278,14.7923899 C122.028797,15.0260347 122.186806,15.3831776 122.186806,15.8638184 C122.186806,16.2999555 122.036812,16.6370717 121.736825,16.8751669 C121.436837,17.1132621 121.028076,17.2323097 120.51054,17.2323097 L120.51054,17.2323097 Z M120.771598,21.564753 L118.669396,21.564753 L118.669396,18.4405874 L120.957086,18.4405874 C121.511262,18.4405874 121.918878,18.5829996 122.179936,18.8678238 C122.440994,19.152648 122.571523,19.553182 122.571523,20.0694259 C122.571523,20.5545171 122.415804,20.9250111 122.104367,21.1809079 C121.792929,21.4368046 121.348673,21.564753 120.771598,21.564753 L120.771598,21.564753 Z M130.945,23 C132.11289,23 133.058652,22.711838 133.782286,22.135514 C134.50592,21.55919 134.867737,20.7325323 134.867737,19.6555407 L134.867737,19.6555407 L134.867737,13.1401869 L133.198341,13.1401869 L133.198341,19.6555407 C133.198341,20.3364486 132.994533,20.8482421 132.586916,21.1909212 C132.1793,21.5336004 131.631994,21.7049399 130.945,21.7049399 C130.280906,21.7049399 129.75192,21.5336004 129.358044,21.1909212 C128.964167,20.8482421 128.767229,20.3364486 128.767229,19.6555407 L128.767229,19.6555407 L128.767229,13.1401869 L127.097833,13.1401869 L127.097833,19.6555407 C127.097833,20.7280819 127.45278,21.5536271 128.162674,22.1321762 C128.872568,22.7107254 129.80001,23 130.945,23 Z M141.929055,22.8598131 L141.929055,14.4419226 L144.95183,14.4419226 L144.95183,13.1401869 L137.236885,13.1401869 L137.236885,14.4419226 L140.25966,14.4419226 L140.25966,22.8598131 L141.929055,22.8598131 Z M151.442943,22.8598131 L151.442943,14.4419226 L154.465718,14.4419226 L154.465718,13.1401869 L146.750773,13.1401869 L146.750773,14.4419226 L149.773547,14.4419226 L149.773547,22.8598131 L151.442943,22.8598131 Z M160.482805,23 C161.705655,23 162.700651,22.6094793 163.467795,21.8284379 C164.234938,21.0473965 164.61851,20.0627503 164.61851,18.8744993 L164.61851,18.8744993 L164.61851,17.1255007 C164.61851,15.9417 164.233793,14.9581664 163.46436,14.1748999 C162.694926,13.3916333 161.698785,13 160.475935,13 C159.280565,13 158.308468,13.3916333 157.559645,14.1748999 C156.810821,14.9581664 156.436409,15.9417 156.436409,17.1255007 L156.436409,17.1255007 L156.436409,18.8744993 C156.436409,20.0627503 156.810821,21.0473965 157.559645,21.8284379 C158.308468,22.6094793 159.282855,23 160.482805,23 Z M160.482805,21.6715621 C159.745431,21.6715621 159.163776,21.4101024 158.73784,20.8871829 C158.311903,20.3642635 158.098935,19.6933689 158.098935,18.8744993 L158.098935,18.8744993 L158.098935,17.1121495 C158.098935,16.3021807 158.311903,15.6368491 158.73784,15.1161549 C159.163776,14.5954606 159.743141,14.3351135 160.475935,14.3351135 C161.236209,14.3351135 161.839618,14.5954606 162.286165,15.1161549 C162.732711,15.6368491 162.955984,16.3021807 162.955984,17.1121495 L162.955984,17.1121495 L162.955984,18.8744993 C162.955984,19.6978193 162.735001,20.3698264 162.293035,20.8905207 C161.851068,21.411215 161.247658,21.6715621 160.482805,21.6715621 Z M169.350918,22.8598131 L169.350918,15.777036 L169.392138,15.7636849 L173.83012,22.8598131 L175.492646,22.8598131 L175.492646,13.1401869 L173.83012,13.1401869 L173.83012,20.2162884 L173.788901,20.2296395 L169.350918,13.1401869 L167.681522,13.1401869 L167.681522,22.8598131 L169.350918,22.8598131 Z M190,22.8598131 L190,21.564753 L185.493318,21.564753 L185.472708,21.5246996 L187.69857,19.2416555 C188.376404,18.5162439 188.876765,17.8998665 189.199652,17.3925234 C189.522539,16.8851802 189.683983,16.35336 189.683983,15.7970628 C189.683983,14.964842 189.404605,14.2906097 188.84585,13.7743658 C188.287095,13.2581219 187.526821,13 186.565029,13 C185.511638,13 184.682665,13.2948376 184.07811,13.8845127 C183.473555,14.4741878 183.182728,15.2007121 183.205628,16.0640854 L183.205628,16.0640854 L183.219368,16.1041389 L184.833804,16.1041389 C184.833804,15.5433912 184.975783,15.1028037 185.25974,14.7823765 C185.543698,14.4619493 185.978794,14.3017356 186.565029,14.3017356 C187.009285,14.3017356 187.361942,14.4485981 187.623,14.7423231 C187.884058,15.0360481 188.014587,15.4009791 188.014587,15.8371162 C188.014587,16.1842457 187.913828,16.5391633 187.712309,16.9018692 C187.510791,17.264575 187.144394,17.7285269 186.613119,18.293725 L186.613119,18.293725 L183.356766,21.7449933 L183.356766,22.8598131 L190,22.8598131 Z" id="BUTTON2" fill="#6200EE" fill-rule="nonzero"></path>
        <path d="M224.730464,22.8598131 C225.799547,22.8598131 226.637599,22.6228304 227.244621,22.1488652 C227.851642,21.6748999 228.155153,20.9817534 228.155153,20.0694259 C228.155153,19.5042279 227.996602,19.0080107 227.679502,18.5807744 C227.362401,18.1535381 226.9094,17.8753894 226.320498,17.7463284 C226.778029,17.5772141 227.1359,17.3190921 227.394111,16.9719626 C227.652322,16.6248331 227.781427,16.2309746 227.781427,15.7903872 C227.781427,14.9092123 227.473386,14.2472185 226.857305,13.8044059 C226.241223,13.3615932 225.385051,13.1401869 224.288788,13.1401869 L224.288788,13.1401869 L221,13.1401869 L221,22.8598131 L224.730464,22.8598131 Z M224.472254,17.2323097 L222.651189,17.2323097 L222.651189,14.4419226 L224.288788,14.4419226 C224.89128,14.4419226 225.348811,14.558745 225.661382,14.7923899 C225.973952,15.0260347 226.130238,15.3831776 226.130238,15.8638184 C226.130238,16.2999555 225.98188,16.6370717 225.685164,16.8751669 C225.388448,17.1132621 224.984145,17.2323097 224.472254,17.2323097 L224.472254,17.2323097 Z M224.730464,21.564753 L222.651189,21.564753 L222.651189,18.4405874 L224.91393,18.4405874 C225.462061,18.4405874 225.865232,18.5829996 226.123443,18.8678238 C226.381653,19.152648 226.510759,19.553182 226.510759,20.0694259 C226.510759,20.5545171 226.356738,20.9250111 226.048698,21.1809079 C225.740657,21.4368046 225.301246,21.564753 224.730464,21.564753 L224.730464,21.564753 Z M234.792914,23 C235.948067,23 236.883514,22.711838 237.599256,22.135514 C238.314998,21.55919 238.672868,20.7325323 238.672868,19.6555407 L238.672868,19.6555407 L238.672868,13.1401869 L237.021679,13.1401869 L237.021679,19.6555407 C237.021679,20.3364486 236.820094,20.8482421 236.416923,21.1909212 C236.013752,21.5336004 235.472415,21.7049399 234.792914,21.7049399 C234.136062,21.7049399 233.612846,21.5336004 233.223265,21.1909212 C232.833684,20.8482421 232.638893,20.3364486 232.638893,19.6555407 L232.638893,19.6555407 L232.638893,13.1401869 L230.987704,13.1401869 L230.987704,19.6555407 C230.987704,20.7280819 231.33878,21.5536271 232.040932,22.1321762 C232.743084,22.7107254 233.660411,23 234.792914,23 Z M245.657175,22.8598131 L245.657175,14.4419226 L248.646983,14.4419226 L248.646983,13.1401869 L241.016179,13.1401869 L241.016179,14.4419226 L244.005986,14.4419226 L244.005986,22.8598131 L245.657175,22.8598131 Z M255.067303,22.8598131 L255.067303,14.4419226 L258.05711,14.4419226 L258.05711,13.1401869 L250.426306,13.1401869 L250.426306,14.4419226 L253.416114,14.4419226 L253.416114,22.8598131 L255.067303,22.8598131 Z M264.008575,23 C265.218088,23 266.202233,22.6094793 266.96101,21.8284379 C267.719786,21.0473965 268.099175,20.0627503 268.099175,18.8744993 L268.099175,18.8744993 L268.099175,17.1255007 C268.099175,15.9417 267.718654,14.9581664 266.957612,14.1748999 C266.19657,13.3916333 265.211293,13 264.00178,13 C262.819447,13 261.857952,13.3916333 261.117295,14.1748999 C260.376638,14.9581664 260.00631,15.9417 260.00631,17.1255007 L260.00631,17.1255007 L260.00631,18.8744993 C260.00631,20.0627503 260.376638,21.0473965 261.117295,21.8284379 C261.857952,22.6094793 262.821712,23 264.008575,23 Z M264.008575,21.6715621 C263.279243,21.6715621 262.703931,21.4101024 262.28264,20.8871829 C261.861349,20.3642635 261.650704,19.6933689 261.650704,18.8744993 L261.650704,18.8744993 L261.650704,17.1121495 C261.650704,16.3021807 261.861349,15.6368491 262.28264,15.1161549 C262.703931,14.5954606 263.276978,14.3351135 264.00178,14.3351135 C264.753762,14.3351135 265.350591,14.5954606 265.792267,15.1161549 C266.233943,15.6368491 266.454781,16.3021807 266.454781,17.1121495 L266.454781,17.1121495 L266.454781,18.8744993 C266.454781,19.6978193 266.236208,20.3698264 265.799062,20.8905207 C265.361916,21.411215 264.765087,21.6715621 264.008575,21.6715621 Z M272.779971,22.8598131 L272.779971,15.777036 L272.820741,15.7636849 L277.210322,22.8598131 L278.854716,22.8598131 L278.854716,13.1401869 L277.210322,13.1401869 L277.210322,20.2162884 L277.169552,20.2296395 L272.779971,13.1401869 L271.128782,13.1401869 L271.128782,22.8598131 L272.779971,22.8598131 Z M289.677237,23 C290.646659,23 291.442809,22.7452158 292.065685,22.2356475 C292.688562,21.7260792 293,21.0262572 293,20.1361816 C293,19.6243881 292.867497,19.1682243 292.602492,18.7676903 C292.337486,18.3671562 291.924122,18.0689809 291.362401,17.8731642 C291.838052,17.6595461 292.204983,17.3591455 292.463194,16.9719626 C292.721404,16.5847797 292.85051,16.1842457 292.85051,15.7703605 C292.85051,14.8847352 292.562854,14.2016021 291.987542,13.7209613 C291.412231,13.2403204 290.642129,13 289.677237,13 C288.762174,13 288.00906,13.252559 287.417894,13.7576769 C286.826727,14.2627948 286.544734,14.8869604 286.571914,15.6301736 L286.571914,15.6301736 L286.585504,15.670227 L288.175538,15.670227 C288.175538,15.2607922 288.317101,14.9303516 288.600227,14.6789052 C288.883352,14.4274588 289.249151,14.3017356 289.697622,14.3017356 C290.191393,14.3017356 290.565119,14.429684 290.8188,14.6855808 C291.07248,14.9414775 291.19932,15.3030708 291.19932,15.7703605 C291.19932,16.246551 291.08154,16.6148198 290.84598,16.8751669 C290.610419,17.135514 290.225368,17.2656876 289.690827,17.2656876 L289.690827,17.2656876 L288.542469,17.2656876 L288.542469,18.540721 L289.690827,18.540721 C290.257078,18.540721 290.674972,18.6708945 290.944507,18.9312417 C291.214043,19.1915888 291.348811,19.5954606 291.348811,20.1428571 C291.348811,20.6412995 291.201586,21.0262572 290.907135,21.2977303 C290.612684,21.5692034 290.209513,21.7049399 289.697622,21.7049399 C289.208381,21.7049399 288.816535,21.5714286 288.522084,21.3044059 C288.227633,21.0373832 288.080408,20.6880285 288.080408,20.2563418 L288.080408,20.2563418 L286.490374,20.2563418 L286.476784,20.2963952 C286.449604,21.1419671 286.747452,21.8039608 287.370328,22.2823765 C287.993205,22.7607922 288.762174,23 289.677237,23 Z" id="BUTTON3" fill-opacity="0.6" fill="#000000" fill-rule="nonzero"></path>
    </g>
</svg>
