<?xml version="1.0" encoding="UTF-8"?>
<svg width="142px" height="48px" viewBox="0 0 142 48" version="1.1" xmlns="http://www.w3.org/2000/svg" xmlns:xlink="http://www.w3.org/1999/xlink">
    <!-- Generator: Sketch 61 (89581) - https://sketch.com -->
    <title>Toggle Button</title>
    <desc>Created with Sketch.</desc>
    <g id="Toggle-Button" stroke="none" stroke-width="1" fill="none" fill-rule="evenodd">
        <path d="M94.5,0.5 L94.5,47.5 L138,47.5 C139.932997,47.5 141.5,45.9329966 141.5,44 L141.5,4 C141.5,2.06700338 139.932997,0.5 138,0.5 L94.5,0.5 Z" id="Container" stroke-opacity="0.12" stroke="#000000" fill-rule="nonzero"></path>
        <path d="M47.5,47.5 L47.5,0.5 L4,0.5 C2.06700338,0.5 0.5,2.06700338 0.5,4 L0.5,44 C0.5,45.9329966 2.06700338,47.5 4,47.5 L47.5,47.5 Z" id="Container" stroke-opacity="0.12" stroke="#000000" fill-rule="nonzero"></path>
        <rect id="Container" stroke="#6200EE" fill-opacity="0.08" fill="#6200EE" fill-rule="nonzero" x="47.5" y="0.5" width="47" height="47"></rect>
        <g id="notifications-24px" transform="translate(110.000000, 14.000000)" fill="#000000" fill-opacity="0.6" fill-rule="nonzero">
            <path d="M8,20 C9.1,20 10,19.1 10,18 L6,18 C6,19.1 6.89,20 8,20 Z M14,14 L14,9 C14,5.93 12.36,3.36 9.5,2.68 L9.5,2 C9.5,1.17 8.83,0.5 8,0.5 C7.17,0.5 6.5,1.17 6.5,2 L6.5,2.68 C3.63,3.36 2,5.92 2,9 L2,14 L0,16 L0,17 L16,17 L16,16 L14,14 Z" id="Shape"></path>
        </g>
        <g id="remove_red_eye-24px" transform="translate(59.000000, 12.000000)">
            <polygon id="Path" points="0 0 24 0 24 24 0 24"></polygon>
            <path d="M12,4.5 C7,4.5 2.73,7.61 1,12 C2.73,16.39 7,19.5 12,19.5 C17,19.5 21.27,16.39 23,12 C21.27,7.61 17,4.5 12,4.5 Z M12,17 C9.24,17 7,14.76 7,12 C7,9.24 9.24,7 12,7 C14.76,7 17,9.24 17,12 C17,14.76 14.76,17 12,17 Z M12,9 C10.34,9 9,10.34 9,12 C9,13.66 10.34,15 12,15 C13.66,15 15,13.66 15,12 C15,10.34 13.66,9 12,9 Z" id="Shape" fill="#6200EE" fill-rule="nonzero"></path>
        </g>
        <g id="favorite-24px" transform="translate(12.000000, 12.000000)">
            <polygon id="Path" points="0 0 24 0 24 24 0 24"></polygon>
            <path d="M12,21.35 L10.55,20.03 C5.4,15.36 2,12.28 2,8.5 C2,5.42 4.42,3 7.5,3 C9.24,3 10.91,3.81 12,5.09 C13.09,3.81 14.76,3 16.5,3 C19.58,3 22,5.42 22,8.5 C22,12.28 18.6,15.36 13.45,20.04 L12,21.35 Z" id="Path" fill-opacity="0.6" fill="#000000" fill-rule="nonzero"></path>
        </g>
    </g>
</svg>
